<svg width="17" height="16" viewBox="0 0 17 16" fill="none" xmlns="http://www.w3.org/2000/svg">
<path d="M8.5 0.15625C7.10221 0.15625 5.80339 0.508789 4.60352 1.21387C3.44076 1.89421 2.51921 2.81576 1.83887 3.97852C1.13379 5.17839 0.78125 6.47721 0.78125 7.875C0.78125 9.27279 1.13379 10.5716 1.83887 11.7715C2.51921 12.9342 3.44076 13.8558 4.60352 14.5361C5.80339 15.2412 7.10221 15.5938 8.5 15.5938C9.89779 15.5938 11.1966 15.2412 12.3965 14.5361C13.5592 13.8558 14.4808 12.9342 15.1611 11.7715C15.8662 10.5716 16.2188 9.27279 16.2188 7.875C16.2188 6.47721 15.8662 5.17839 15.1611 3.97852C14.4808 2.81576 13.5592 1.89421 12.3965 1.21387C11.1966 0.508789 9.89779 0.15625 8.5 0.15625ZM8.5 1.34375C9.67513 1.34375 10.776 1.64062 11.8027 2.23438C12.7799 2.81576 13.5592 3.59505 14.1406 4.57227C14.7344 5.59896 15.0312 6.69987 15.0312 7.875C15.0312 9.05013 14.7344 10.151 14.1406 11.1777C13.5592 12.1549 12.7799 12.9342 11.8027 13.5156C10.776 14.1094 9.67513 14.4062 8.5 14.4062C7.32487 14.4062 6.22396 14.1094 5.19727 13.5156C4.22005 12.9342 3.44076 12.1549 2.85938 11.1777C2.26562 10.151 1.96875 9.05013 1.96875 7.875C1.96875 6.69987 2.26562 5.59896 2.85938 4.57227C3.44076 3.59505 4.22005 2.81576 5.19727 2.23438C6.22396 1.64062 7.32487 1.34375 8.5 1.34375ZM5.82812 5.5C5.58073 5.5 5.37044 5.58659 5.19727 5.75977C5.02409 5.93294 4.9375 6.14323 4.9375 6.39062C4.9375 6.63802 5.02409 6.84831 5.19727 7.02148C5.37044 7.19466 5.58073 7.28125 5.82812 7.28125C6.07552 7.28125 6.28581 7.19466 6.45898 7.02148C6.63216 6.84831 6.71875 6.63802 6.71875 6.39062C6.71875 6.14323 6.63216 5.93294 6.45898 5.75977C6.28581 5.58659 6.07552 5.5 5.82812 5.5ZM11.1719 5.5C10.9245 5.5 10.7142 5.58659 10.541 5.75977C10.3678 5.93294 10.2812 6.14323 10.2812 6.39062C10.2812 6.63802 10.3678 6.84831 10.541 7.02148C10.7142 7.19466 10.9245 7.28125 11.1719 7.28125C11.4193 7.28125 11.6296 7.19466 11.8027 7.02148C11.9759 6.84831 12.0625 6.63802 12.0625 6.39062C12.0625 6.14323 11.9759 5.93294 11.8027 5.75977C11.6296 5.58659 11.4193 5.5 11.1719 5.5ZM4.34375 9.65625C4.38086 9.75521 4.42415 9.86035 4.47363 9.97168C4.58496 10.2191 4.72103 10.4603 4.88184 10.6953C5.10449 11.0293 5.36426 11.3262 5.66113 11.5859C6.01986 11.8952 6.40951 12.1364 6.83008 12.3096C7.34961 12.5199 7.90625 12.625 8.5 12.625C9.09375 12.625 9.65039 12.5199 10.1699 12.3096C10.5905 12.1364 10.9801 11.8952 11.3389 11.5859C11.6357 11.3262 11.8955 11.0293 12.1182 10.6953C12.279 10.4603 12.415 10.2191 12.5264 9.97168L12.6562 9.65625H4.34375Z" fill="#777777" fill-opacity="0.5"/>
</svg>
