<svg width="20" height="20" viewBox="0 0 20 20" fill="none" xmlns="http://www.w3.org/2000/svg">
<g clip-path="url(#clip0)">
<path d="M13.3333 13.3333L10 10L6.66667 13.3333" stroke="#444444" stroke-width="2" stroke-linecap="round" stroke-linejoin="round"/>
<path d="M10 10V17.5" stroke="#444444" stroke-width="2" stroke-linecap="round" stroke-linejoin="round"/>
<path d="M16.9917 15.325C17.8045 14.8819 18.4465 14.1807 18.8166 13.3322C19.1866 12.4836 19.2635 11.536 19.0352 10.6389C18.8068 9.74179 18.2862 8.94626 17.5556 8.37787C16.8249 7.80949 15.9257 7.50061 15 7.5H13.95C13.6978 6.52437 13.2276 5.61861 12.575 4.85083C11.9223 4.08304 11.104 3.47321 10.1818 3.06717C9.25946 2.66114 8.25713 2.46947 7.2501 2.50657C6.24307 2.54367 5.25756 2.80858 4.36765 3.28139C3.47774 3.75419 2.70659 4.42259 2.11219 5.23632C1.51778 6.05005 1.11558 6.98795 0.935818 7.9795C0.756059 8.97104 0.803422 9.99044 1.07435 10.9611C1.34527 11.9317 1.8327 12.8282 2.5 13.5833" stroke="#444444" stroke-width="2" stroke-linecap="round" stroke-linejoin="round"/>
<path d="M13.3333 13.3333L10 10L6.66667 13.3333" stroke="#444444" stroke-width="2" stroke-linecap="round" stroke-linejoin="round"/>
</g>
<defs>
<clipPath id="clip0">
<rect width="20" height="20" fill="white"/>
</clipPath>
</defs>
</svg>
