<svg width="4" height="12" viewBox="0 0 4 12" fill="none" xmlns="http://www.w3.org/2000/svg">
<path d="M2 0.625C1.68359 0.625 1.41406 0.736328 1.19141 0.958984C0.980469 1.16992 0.875 1.43359 0.875 1.75C0.875 2.06641 0.980469 2.33594 1.19141 2.55859C1.41406 2.76953 1.68359 2.875 2 2.875C2.31641 2.875 2.58008 2.76953 2.79102 2.55859C3.01367 2.33594 3.125 2.06641 3.125 1.75C3.125 1.43359 3.01367 1.16992 2.79102 0.958984C2.58008 0.736328 2.31641 0.625 2 0.625ZM2 5.125C1.68359 5.125 1.41406 5.23633 1.19141 5.45898C0.980469 5.66992 0.875 5.93359 0.875 6.25C0.875 6.56641 0.980469 6.83594 1.19141 7.05859C1.41406 7.26953 1.68359 7.375 2 7.375C2.31641 7.375 2.58008 7.26953 2.79102 7.05859C3.01367 6.83594 3.125 6.56641 3.125 6.25C3.125 5.93359 3.01367 5.66992 2.79102 5.45898C2.58008 5.23633 2.31641 5.125 2 5.125ZM2 9.625C1.68359 9.625 1.41406 9.73633 1.19141 9.95898C0.980469 10.1699 0.875 10.4336 0.875 10.75C0.875 11.0664 0.980469 11.3359 1.19141 11.5586C1.41406 11.7695 1.68359 11.875 2 11.875C2.31641 11.875 2.58008 11.7695 2.79102 11.5586C3.01367 11.3359 3.125 11.0664 3.125 10.75C3.125 10.4336 3.01367 10.1699 2.79102 9.95898C2.58008 9.73633 2.31641 9.625 2 9.625Z" fill="#999999"/>
</svg>
