<svg width="70" height="15" viewBox="0 0 70 15" fill="none" xmlns="http://www.w3.org/2000/svg">
<path d="M7.8418 8.77051H2.7793V14H0.142578V1.20312H8.47461V3.33887H2.7793V6.64355H7.8418V8.77051ZM15.3389 13.0332C14.7119 13.7949 13.8447 14.1758 12.7373 14.1758C11.7178 14.1758 10.9385 13.8828 10.3994 13.2969C9.86621 12.7109 9.59375 11.8525 9.58203 10.7217V4.49023H12.1221V10.6338C12.1221 11.624 12.5732 12.1191 13.4756 12.1191C14.3369 12.1191 14.9287 11.8203 15.251 11.2227V4.49023H17.7998V14H15.4092L15.3389 13.0332ZM22.0537 4.49023L22.1328 5.58887C22.8125 4.73926 23.7236 4.31445 24.8662 4.31445C25.874 4.31445 26.624 4.61035 27.1162 5.20215C27.6084 5.79395 27.8604 6.67871 27.8721 7.85645V14H25.332V7.91797C25.332 7.37891 25.2148 6.98926 24.9805 6.74902C24.7461 6.50293 24.3564 6.37988 23.8115 6.37988C23.0967 6.37988 22.5605 6.68457 22.2031 7.29395V14H19.6631V4.49023H22.0537ZM29.4102 9.1748C29.4102 7.69238 29.7412 6.51172 30.4033 5.63281C31.0713 4.75391 31.9824 4.31445 33.1367 4.31445C34.0625 4.31445 34.8271 4.66016 35.4307 5.35156V0.5H37.9795V14H35.6855L35.5625 12.9893C34.9297 13.7803 34.1152 14.1758 33.1191 14.1758C32 14.1758 31.1006 13.7363 30.4209 12.8574C29.7471 11.9727 29.4102 10.7451 29.4102 9.1748ZM31.9502 9.35938C31.9502 10.25 32.1055 10.9326 32.416 11.4072C32.7266 11.8818 33.1777 12.1191 33.7695 12.1191C34.5547 12.1191 35.1084 11.7881 35.4307 11.126V7.37305C35.1143 6.71094 34.5664 6.37988 33.7871 6.37988C32.5625 6.37988 31.9502 7.37305 31.9502 9.35938ZM40.0801 12.752C40.0801 12.3477 40.2148 12.0195 40.4844 11.7676C40.7598 11.5156 41.1025 11.3896 41.5127 11.3896C41.9287 11.3896 42.2715 11.5156 42.541 11.7676C42.8164 12.0195 42.9541 12.3477 42.9541 12.752C42.9541 13.1504 42.8193 13.4756 42.5498 13.7275C42.2803 13.9736 41.9346 14.0967 41.5127 14.0967C41.0967 14.0967 40.7539 13.9736 40.4844 13.7275C40.2148 13.4756 40.0801 13.1504 40.0801 12.752ZM47.5684 4.49023L47.6475 5.55371C48.3213 4.72754 49.2324 4.31445 50.3809 4.31445C51.6055 4.31445 52.4463 4.79785 52.9033 5.76465C53.5713 4.79785 54.5234 4.31445 55.7598 4.31445C56.791 4.31445 57.5586 4.61621 58.0625 5.21973C58.5664 5.81738 58.8184 6.71973 58.8184 7.92676V14H56.2695V7.93555C56.2695 7.39648 56.1641 7.00391 55.9531 6.75781C55.7422 6.50586 55.3701 6.37988 54.8369 6.37988C54.0752 6.37988 53.5479 6.74316 53.2549 7.46973L53.2637 14H50.7236V7.94434C50.7236 7.39355 50.6152 6.99512 50.3984 6.74902C50.1816 6.50293 49.8125 6.37988 49.291 6.37988C48.5703 6.37988 48.0488 6.67871 47.7266 7.27637V14H45.1865V4.49023H47.5684ZM65.1553 14.1758C63.7607 14.1758 62.624 13.748 61.7451 12.8926C60.8721 12.0371 60.4355 10.8975 60.4355 9.47363V9.22754C60.4355 8.27246 60.6201 7.41992 60.9893 6.66992C61.3584 5.91406 61.8799 5.33398 62.5537 4.92969C63.2334 4.51953 64.0068 4.31445 64.874 4.31445C66.1748 4.31445 67.1973 4.72461 67.9414 5.54492C68.6914 6.36523 69.0664 7.52832 69.0664 9.03418V10.0713H63.0107C63.0928 10.6924 63.3389 11.1904 63.749 11.5654C64.165 11.9404 64.6895 12.1279 65.3223 12.1279C66.3008 12.1279 67.0654 11.7734 67.6162 11.0645L68.8643 12.4619C68.4834 13.001 67.9678 13.4229 67.3174 13.7275C66.667 14.0264 65.9463 14.1758 65.1553 14.1758ZM64.8652 6.37109C64.3613 6.37109 63.9512 6.54102 63.6348 6.88086C63.3242 7.2207 63.125 7.70703 63.0371 8.33984H66.5703V8.1377C66.5586 7.5752 66.4062 7.1416 66.1133 6.83691C65.8203 6.52637 65.4043 6.37109 64.8652 6.37109Z" fill="white"/>
</svg>
