<svg width="16" height="13" viewBox="0 0 16 13" fill="none" xmlns="http://www.w3.org/2000/svg">
<path d="M8 0.25C6.64583 0.25 5.38281 0.595052 4.21094 1.28516C3.07812 1.9362 2.1862 2.82812 1.53516 3.96094C0.845052 5.13281 0.5 6.39583 0.5 7.75C0.5 8.63542 0.64974 9.49479 0.949219 10.3281C1.2487 11.1224 1.67188 11.8516 2.21875 12.5156L2.39453 12.75H13.6055L13.7812 12.5156C14.3281 11.8516 14.7513 11.1224 15.0508 10.3281C15.3503 9.49479 15.5 8.63542 15.5 7.75C15.5 6.39583 15.1615 5.13281 14.4844 3.96094C13.8203 2.82812 12.9219 1.9362 11.7891 1.28516C10.6172 0.595052 9.35417 0.25 8 0.25ZM8 1.5C9.13281 1.5 10.1875 1.78646 11.1641 2.35938C12.1016 2.90625 12.8438 3.64844 13.3906 4.58594C13.9635 5.5625 14.25 6.61719 14.25 7.75C14.25 8.4401 14.1328 9.11068 13.8984 9.76172C13.6771 10.3867 13.3646 10.9661 12.9609 11.5H3.03906C2.63542 10.9661 2.32292 10.3867 2.10156 9.76172C1.86719 9.11068 1.75 8.4401 1.75 7.75C1.75 6.61719 2.03646 5.5625 2.60938 4.58594C3.15625 3.64844 3.89844 2.90625 4.83594 2.35938C5.8125 1.78646 6.86719 1.5 8 1.5ZM8 2.125C7.83073 2.125 7.68099 2.1901 7.55078 2.32031C7.43359 2.4375 7.375 2.58073 7.375 2.75C7.375 2.91927 7.43359 3.06901 7.55078 3.19922C7.68099 3.31641 7.83073 3.375 8 3.375C8.16927 3.375 8.3125 3.31641 8.42969 3.19922C8.5599 3.06901 8.625 2.91927 8.625 2.75C8.625 2.58073 8.5599 2.4375 8.42969 2.32031C8.3125 2.1901 8.16927 2.125 8 2.125ZM5.5 2.78906C5.33073 2.78906 5.18099 2.85417 5.05078 2.98438C4.93359 3.10156 4.875 3.24479 4.875 3.41406C4.875 3.58333 4.93359 3.73307 5.05078 3.86328C5.18099 3.98047 5.33073 4.03906 5.5 4.03906C5.66927 4.03906 5.8125 3.98047 5.92969 3.86328C6.0599 3.73307 6.125 3.58333 6.125 3.41406C6.125 3.24479 6.0599 3.10156 5.92969 2.98438C5.8125 2.85417 5.66927 2.78906 5.5 2.78906ZM10.5 2.78906C10.3307 2.78906 10.181 2.85417 10.0508 2.98438C9.93359 3.10156 9.875 3.24479 9.875 3.41406C9.875 3.58333 9.93359 3.73307 10.0508 3.86328C10.181 3.98047 10.3307 4.03906 10.5 4.03906C10.6693 4.03906 10.8125 3.98047 10.9297 3.86328C11.0599 3.73307 11.125 3.58333 11.125 3.41406C11.125 3.24479 11.0599 3.10156 10.9297 2.98438C10.8125 2.85417 10.6693 2.78906 10.5 2.78906ZM3.66406 4.625C3.49479 4.625 3.34505 4.6901 3.21484 4.82031C3.09766 4.9375 3.03906 5.08073 3.03906 5.25C3.03906 5.41927 3.09766 5.56901 3.21484 5.69922C3.34505 5.81641 3.49479 5.875 3.66406 5.875C3.83333 5.875 3.97656 5.81641 4.09375 5.69922C4.22396 5.56901 4.28906 5.41927 4.28906 5.25C4.28906 5.08073 4.22396 4.9375 4.09375 4.82031C3.97656 4.6901 3.83333 4.625 3.66406 4.625ZM12.1602 4.64453L8.625 6.67578C8.42969 6.55859 8.22135 6.5 8 6.5C7.64844 6.5 7.34896 6.6237 7.10156 6.87109C6.86719 7.10547 6.75 7.39844 6.75 7.75C6.75 8.10156 6.86719 8.40104 7.10156 8.64844C7.34896 8.88281 7.64193 9 7.98047 9C8.33203 9 8.63151 8.88281 8.87891 8.64844C9.1263 8.40104 9.25 8.10807 9.25 7.76953V7.75L12.7852 5.73828L12.1602 4.64453ZM3 7.125C2.83073 7.125 2.68099 7.1901 2.55078 7.32031C2.43359 7.4375 2.375 7.58073 2.375 7.75C2.375 7.91927 2.43359 8.06901 2.55078 8.19922C2.68099 8.31641 2.83073 8.375 3 8.375C3.16927 8.375 3.3125 8.31641 3.42969 8.19922C3.5599 8.06901 3.625 7.91927 3.625 7.75C3.625 7.58073 3.5599 7.4375 3.42969 7.32031C3.3125 7.1901 3.16927 7.125 3 7.125ZM13 7.125C12.8307 7.125 12.681 7.1901 12.5508 7.32031C12.4336 7.4375 12.375 7.58073 12.375 7.75C12.375 7.91927 12.4336 8.06901 12.5508 8.19922C12.681 8.31641 12.8307 8.375 13 8.375C13.1693 8.375 13.3125 8.31641 13.4297 8.19922C13.5599 8.06901 13.625 7.91927 13.625 7.75C13.625 7.58073 13.5599 7.4375 13.4297 7.32031C13.3125 7.1901 13.1693 7.125 13 7.125ZM3.66406 9.625C3.49479 9.625 3.34505 9.6901 3.21484 9.82031C3.09766 9.9375 3.03906 10.0807 3.03906 10.25C3.03906 10.4193 3.09766 10.569 3.21484 10.6992C3.34505 10.8164 3.49479 10.875 3.66406 10.875C3.83333 10.875 3.97656 10.8164 4.09375 10.6992C4.22396 10.569 4.28906 10.4193 4.28906 10.25C4.28906 10.0807 4.22396 9.9375 4.09375 9.82031C3.97656 9.6901 3.83333 9.625 3.66406 9.625ZM12.3359 9.625C12.1667 9.625 12.0169 9.6901 11.8867 9.82031C11.7695 9.9375 11.7109 10.0807 11.7109 10.25C11.7109 10.4193 11.7695 10.569 11.8867 10.6992C12.0169 10.8164 12.1667 10.875 12.3359 10.875C12.5052 10.875 12.6484 10.8164 12.7656 10.6992C12.8958 10.569 12.9609 10.4193 12.9609 10.25C12.9609 10.0807 12.8958 9.9375 12.7656 9.82031C12.6484 9.6901 12.5052 9.625 12.3359 9.625Z" fill="white"/>
</svg>
