<svg width="18" height="13" viewBox="0 0 18 13" fill="none" xmlns="http://www.w3.org/2000/svg">
<path d="M0.875 0.25V12.75H17.125V0.25H0.875ZM2.125 1.5H15.875V11.5H13.7461C13.7331 11.474 13.7201 11.4284 13.707 11.3633C13.694 11.2982 13.6745 11.2526 13.6484 11.2266C13.4141 10.9922 13.1146 10.875 12.75 10.875C12.3854 10.875 12.0859 10.9922 11.8516 11.2266C11.8255 11.2526 11.806 11.2982 11.793 11.3633C11.7799 11.4284 11.7669 11.474 11.7539 11.5H6.24609C6.23307 11.474 6.22005 11.4284 6.20703 11.3633C6.19401 11.2982 6.17448 11.2526 6.14844 11.2266C5.91406 10.9922 5.61458 10.875 5.25 10.875C4.88542 10.875 4.58594 10.9922 4.35156 11.2266C4.32552 11.2526 4.30599 11.2982 4.29297 11.3633C4.27995 11.4284 4.26693 11.474 4.25391 11.5H2.125V1.5ZM6.5 2.75C6.04427 2.75 5.6276 2.86719 5.25 3.10156C4.8724 3.32292 4.56641 3.6224 4.33203 4C4.11068 4.3776 4 4.79427 4 5.25C4 5.58854 4.0651 5.91406 4.19531 6.22656C4.33854 6.52604 4.52734 6.79297 4.76172 7.02734C4.33203 7.3138 3.99349 7.69141 3.74609 8.16016C3.4987 8.61589 3.375 9.10417 3.375 9.625H4.625C4.625 9.10417 4.80729 8.66146 5.17188 8.29688C5.53646 7.93229 5.97917 7.75 6.5 7.75C7.02083 7.75 7.46354 7.93229 7.82812 8.29688C8.19271 8.66146 8.375 9.10417 8.375 9.625H9.625C9.625 9.10417 9.5013 8.61589 9.25391 8.16016C9.00651 7.69141 8.66797 7.3138 8.23828 7.02734C8.47266 6.79297 8.65495 6.52604 8.78516 6.22656C8.92839 5.91406 9 5.58854 9 5.25C9 4.79427 8.88281 4.3776 8.64844 4C8.42708 3.6224 8.1276 3.32292 7.75 3.10156C7.3724 2.86719 6.95573 2.75 6.5 2.75ZM6.5 4C6.85156 4 7.14453 4.1237 7.37891 4.37109C7.6263 4.60547 7.75 4.89844 7.75 5.25C7.75 5.60156 7.6263 5.90104 7.37891 6.14844C7.14453 6.38281 6.85156 6.5 6.5 6.5C6.14844 6.5 5.84896 6.38281 5.60156 6.14844C5.36719 5.90104 5.25 5.60156 5.25 5.25C5.25 4.89844 5.36719 4.60547 5.60156 4.37109C5.84896 4.1237 6.14844 4 6.5 4ZM10.875 4.625V5.875H14.625V4.625H10.875ZM10.875 7.125V8.375H14.625V7.125H10.875Z" fill="white"/>
</svg>
