<svg width="14" height="14" viewBox="0 0 14 14" fill="none" xmlns="http://www.w3.org/2000/svg">
<path opacity="0.66" d="M7 0.5C5.82292 0.5 4.72917 0.796875 3.71875 1.39062C2.73958 1.96354 1.96354 2.73958 1.39062 3.71875C0.796875 4.72917 0.5 5.82292 0.5 7C0.5 8.17708 0.796875 9.27083 1.39062 10.2812C1.96354 11.2604 2.73958 12.0365 3.71875 12.6094C4.72917 13.2031 5.82292 13.5 7 13.5C8.17708 13.5 9.27083 13.2031 10.2812 12.6094C11.2604 12.0365 12.0365 11.2604 12.6094 10.2812C13.2031 9.27083 13.5 8.17708 13.5 7C13.5 5.82292 13.2031 4.72917 12.6094 3.71875C12.0365 2.73958 11.2604 1.96354 10.2812 1.39062C9.27083 0.796875 8.17708 0.5 7 0.5ZM7 1.5C8 1.5 8.92708 1.75 9.78125 2.25C10.6042 2.73958 11.2604 3.39583 11.75 4.21875C12.25 5.07292 12.5 6 12.5 7C12.5 8 12.25 8.92708 11.75 9.78125C11.2604 10.6042 10.6042 11.2604 9.78125 11.75C8.92708 12.25 8 12.5 7 12.5C6 12.5 5.07292 12.25 4.21875 11.75C3.39583 11.2604 2.73958 10.6042 2.25 9.78125C1.75 8.92708 1.5 8 1.5 7C1.5 6 1.75 5.07292 2.25 4.21875C2.73958 3.39583 3.39583 2.73958 4.21875 2.25C5.07292 1.75 6 1.5 7 1.5ZM7 3C6.55208 3 6.13542 3.11458 5.75 3.34375C5.36458 3.5625 5.05729 3.86458 4.82812 4.25C4.60938 4.63542 4.5 5.05208 4.5 5.5C4.5 5.86458 4.57812 6.21354 4.73438 6.54688C4.89062 6.86979 5.10938 7.15104 5.39062 7.39062C4.81771 7.68229 4.35938 8.10938 4.01562 8.67188C3.67188 9.22396 3.5 9.83333 3.5 10.5H4.5C4.5 10.0417 4.60938 9.625 4.82812 9.25C5.05729 8.86458 5.35938 8.5625 5.73438 8.34375C6.11979 8.11458 6.54167 8 7 8C7.45833 8 7.875 8.11458 8.25 8.34375C8.63542 8.5625 8.9375 8.86458 9.15625 9.25C9.38542 9.625 9.5 10.0417 9.5 10.5H10.5C10.5 9.83333 10.3281 9.22396 9.98438 8.67188C9.64062 8.10938 9.18229 7.68229 8.60938 7.39062C8.89062 7.15104 9.10938 6.86979 9.26562 6.54688C9.42188 6.21354 9.5 5.86458 9.5 5.5C9.5 5.05208 9.38542 4.63542 9.15625 4.25C8.9375 3.86458 8.63542 3.5625 8.25 3.34375C7.86458 3.11458 7.44792 3 7 3ZM7 4C7.41667 4 7.77083 4.14583 8.0625 4.4375C8.35417 4.72917 8.5 5.08333 8.5 5.5C8.5 5.91667 8.35417 6.27083 8.0625 6.5625C7.77083 6.85417 7.41667 7 7 7C6.58333 7 6.22917 6.85417 5.9375 6.5625C5.64583 6.27083 5.5 5.91667 5.5 5.5C5.5 5.08333 5.64583 4.72917 5.9375 4.4375C6.22917 4.14583 6.58333 4 7 4Z" fill="#444444"/>
</svg>
