<svg width="17" height="13" viewBox="0 0 17 13" fill="none" xmlns="http://www.w3.org/2000/svg">
<path d="M8.5 0.53125C7.74544 0.53125 7.01562 0.698242 6.31055 1.03223C5.66732 1.34147 5.09212 1.7806 4.58496 2.34961L4.49219 2.33105C4.43034 2.31868 4.38086 2.3125 4.34375 2.3125C3.91081 2.3125 3.51497 2.42383 3.15625 2.64648C2.79753 2.85677 2.50684 3.14128 2.28418 3.5C2.07389 3.85872 1.96875 4.25456 1.96875 4.6875C1.43685 5.00911 1.01009 5.4235 0.688477 5.93066C0.354492 6.46257 0.1875 7.04395 0.1875 7.6748C0.1875 8.30566 0.348307 8.89323 0.669922 9.4375C0.991536 9.98177 1.42448 10.4147 1.96875 10.7363C2.51302 11.0579 3.10677 11.2188 3.75 11.2188H6.71875V10.0312H3.75C3.31706 10.0312 2.91504 9.92611 2.54395 9.71582C2.18522 9.50553 1.90072 9.22103 1.69043 8.8623C1.48014 8.49121 1.375 8.08919 1.375 7.65625C1.375 7.17383 1.50488 6.7347 1.76465 6.33887C2.03678 5.94303 2.38932 5.65234 2.82227 5.4668L3.23047 5.2998L3.15625 4.6875C3.15625 4.35352 3.26758 4.0752 3.49023 3.85254C3.72526 3.61751 4.00977 3.5 4.34375 3.5C4.43034 3.5 4.52311 3.51237 4.62207 3.53711L4.99316 3.62988L5.21582 3.33301C5.59928 2.83822 6.07552 2.44857 6.64453 2.16406C7.22591 1.86719 7.83822 1.71875 8.48145 1.71875C9.12467 1.71875 9.72461 1.85482 10.2812 2.12695C10.8503 2.39909 11.3265 2.77637 11.71 3.25879C12.1058 3.72884 12.3779 4.26074 12.5264 4.85449L12.6377 5.31836L13.1387 5.2998C13.3613 5.28743 13.3984 5.28125 13.25 5.28125C13.6829 5.28125 14.0788 5.38639 14.4375 5.59668C14.8086 5.80697 15.0993 6.09766 15.3096 6.46875C15.5199 6.82747 15.625 7.22331 15.625 7.65625C15.625 8.08919 15.5199 8.49121 15.3096 8.8623C15.0993 9.22103 14.8086 9.50553 14.4375 9.71582C14.0788 9.92611 13.6829 10.0312 13.25 10.0312H10.2812V11.2188H13.25C13.8932 11.2188 14.487 11.0579 15.0312 10.7363C15.5755 10.4147 16.0085 9.98177 16.3301 9.4375C16.6517 8.89323 16.8125 8.29948 16.8125 7.65625C16.8125 7.03776 16.6641 6.46875 16.3672 5.94922C16.0703 5.42969 15.6683 5.0153 15.1611 4.70605C14.654 4.38444 14.0973 4.19889 13.4912 4.14941C13.2438 3.45671 12.8727 2.83822 12.3779 2.29395C11.8955 1.7373 11.3265 1.31055 10.6709 1.01367C9.99056 0.692057 9.26693 0.53125 8.5 0.53125ZM8.5 5.28125L6.125 7.65625H7.90625V12.4062H9.09375V7.65625H10.875L8.5 5.28125Z" fill="#2C8EDE"/>
</svg>
