<svg width="12" height="13" viewBox="0 0 12 13" fill="none" xmlns="http://www.w3.org/2000/svg">
<path d="M6 0.0625C5.28516 0.0625 4.62305 0.238281 4.01367 0.589844C3.41602 0.941406 2.94141 1.42188 2.58984 2.03125C2.23828 2.62891 2.0625 3.28516 2.0625 4C2.0625 4.66797 2.21484 5.28906 2.51953 5.86328C2.83594 6.4375 3.26367 6.90625 3.80273 7.26953C3.13477 7.5625 2.53711 7.9668 2.00977 8.48242C1.49414 8.99805 1.0957 9.58984 0.814453 10.2578C0.521484 10.9492 0.375 11.6758 0.375 12.4375H1.5C1.5 11.6172 1.69922 10.8672 2.09766 10.1875C2.50781 9.49609 3.05273 8.95117 3.73242 8.55273C4.42383 8.14258 5.17969 7.9375 6 7.9375C6.82031 7.9375 7.57031 8.14258 8.25 8.55273C8.94141 8.95117 9.48633 9.49609 9.88477 10.1875C10.2949 10.8672 10.5 11.6172 10.5 12.4375H11.625C11.625 11.6758 11.4785 10.9492 11.1855 10.2578C10.9043 9.58984 10.5 8.99805 9.97266 8.48242C9.45703 7.9668 8.86523 7.5625 8.19727 7.26953C8.73633 6.90625 9.1582 6.4375 9.46289 5.86328C9.7793 5.28906 9.9375 4.66797 9.9375 4C9.9375 3.28516 9.76172 2.62891 9.41016 2.03125C9.05859 1.42188 8.57812 0.941406 7.96875 0.589844C7.37109 0.238281 6.71484 0.0625 6 0.0625ZM6 1.1875C6.51562 1.1875 6.98438 1.31641 7.40625 1.57422C7.83984 1.82031 8.17969 2.16016 8.42578 2.59375C8.68359 3.01562 8.8125 3.48437 8.8125 4C8.8125 4.51562 8.68359 4.99023 8.42578 5.42383C8.17969 5.8457 7.83984 6.18555 7.40625 6.44336C6.98438 6.68945 6.51562 6.8125 6 6.8125C5.48438 6.8125 5.00977 6.68945 4.57617 6.44336C4.1543 6.18555 3.81445 5.8457 3.55664 5.42383C3.31055 4.99023 3.1875 4.51562 3.1875 4C3.1875 3.48437 3.31055 3.01562 3.55664 2.59375C3.81445 2.16016 4.1543 1.82031 4.57617 1.57422C5.00977 1.31641 5.48438 1.1875 6 1.1875Z" fill="#2A2F4C"/>
</svg>
