<svg width="18" height="18" viewBox="0 0 18 18" fill="none" xmlns="http://www.w3.org/2000/svg">
<path d="M9 0C7.375 0 5.85938 0.414062 4.45312 1.24219C3.09375 2.02344 2.02344 3.09375 1.24219 4.45312C0.414062 5.85938 0 7.375 0 9C0 10.625 0.414062 12.1406 1.24219 13.5469C2.02344 14.9062 3.09375 15.9844 4.45312 16.7812C5.85938 17.5938 7.375 18 9 18C10.625 18 12.1406 17.5938 13.5469 16.7812C14.9062 15.9844 15.9844 14.9062 16.7812 13.5469C17.5938 12.1406 18 10.625 18 9C18 7.375 17.5938 5.85938 16.7812 4.45312C15.9844 3.09375 14.9062 2.02344 13.5469 1.24219C12.1406 0.414062 10.625 0 9 0ZM9 1.5C10.3594 1.5 11.625 1.84375 12.7969 2.53125C13.9219 3.1875 14.8125 4.07812 15.4688 5.20312C16.1562 6.375 16.5 7.64062 16.5 9C16.5 10.3594 16.1562 11.625 15.4688 12.7969C14.8125 13.9219 13.9219 14.8125 12.7969 15.4688C11.625 16.1562 10.3594 16.5 9 16.5C7.64062 16.5 6.375 16.1562 5.20312 15.4688C4.07812 14.8125 3.1875 13.9219 2.53125 12.7969C1.84375 11.625 1.5 10.3594 1.5 9C1.5 7.64062 1.84375 6.375 2.53125 5.20312C3.1875 4.07812 4.07812 3.1875 5.20312 2.53125C6.375 1.84375 7.64062 1.5 9 1.5ZM9 4.5C8.45312 4.5 7.95312 4.64062 7.5 4.92188C7.04688 5.1875 6.67969 5.54688 6.39844 6C6.13281 6.45312 6 6.95312 6 7.5H7.5C7.5 7.07812 7.64062 6.72656 7.92188 6.44531C8.21875 6.14844 8.57812 6 9 6C9.42188 6 9.77344 6.14844 10.0547 6.44531C10.3516 6.72656 10.5 7.07812 10.5 7.5C10.5 7.78125 10.4141 8.03906 10.2422 8.27344C10.0703 8.50781 9.85156 8.67188 9.58594 8.76562L9.28125 8.85938C8.96875 8.95312 8.71875 9.13281 8.53125 9.39844C8.34375 9.66406 8.25 9.96094 8.25 10.2891V11.25H9.75V10.2891L10.0547 10.1953C10.6328 10.0078 11.1016 9.66406 11.4609 9.16406C11.8203 8.66406 12 8.10938 12 7.5C12 6.95312 11.8594 6.45312 11.5781 6C11.3125 5.54688 10.9531 5.1875 10.5 4.92188C10.0469 4.64062 9.54688 4.5 9 4.5ZM8.25 12V13.5H9.75V12H8.25Z" fill="white"/>
</svg>
