<svg width="8" height="16" viewBox="0 0 8 16" fill="none" xmlns="http://www.w3.org/2000/svg">
<path d="M3.4375 0.4375V1.61523C2.91016 1.70898 2.42969 1.91406 1.99609 2.23047C1.57422 2.54688 1.24023 2.94531 0.994141 3.42578C0.748047 3.89453 0.625 4.39844 0.625 4.9375C0.625 5.41797 0.730469 5.85742 0.941406 6.25586C1.12891 6.61914 1.38672 6.93555 1.71484 7.20508C1.97266 7.4043 2.2832 7.5918 2.64648 7.76758C2.85742 7.87305 3.18555 8.01367 3.63086 8.18945L3.78906 8.25977C4.65625 8.61133 5.25391 8.91602 5.58203 9.17383C5.81641 9.36133 5.98047 9.54883 6.07422 9.73633C6.19141 9.95898 6.25 10.2344 6.25 10.5625C6.25 10.9609 6.14453 11.3359 5.93359 11.6875C5.73438 12.0273 5.46484 12.3027 5.125 12.5137C4.78516 12.7129 4.41016 12.8125 4 12.8125C3.58984 12.8125 3.20898 12.7129 2.85742 12.5137C2.51758 12.3145 2.24805 12.0449 2.04883 11.7051C1.84961 11.3535 1.75 10.9727 1.75 10.5625V10H0.625V10.5625C0.625 11.1133 0.748047 11.6289 0.994141 12.1094C1.24023 12.5781 1.57422 12.9707 1.99609 13.2871C2.42969 13.5918 2.91016 13.791 3.4375 13.8848V15.0625H4.5625V13.8848C5.08984 13.791 5.56445 13.5859 5.98633 13.2695C6.41992 12.9531 6.75977 12.5605 7.00586 12.0918C7.25195 11.6113 7.375 11.1016 7.375 10.5625C7.375 10.082 7.26953 9.64258 7.05859 9.24414C6.87109 8.88086 6.61328 8.56445 6.28516 8.29492C6.01562 8.08398 5.6875 7.88477 5.30078 7.69727C5.07812 7.58008 4.73242 7.42773 4.26367 7.24023L4.21094 7.22266C3.76562 7.04688 3.43164 6.90625 3.20898 6.80078C2.88086 6.63672 2.61719 6.47852 2.41797 6.32617C2.18359 6.13867 2.01953 5.95117 1.92578 5.76367C1.80859 5.54102 1.75 5.26562 1.75 4.9375C1.75 4.52734 1.84961 4.15234 2.04883 3.8125C2.24805 3.47266 2.51758 3.20313 2.85742 3.00391C3.20898 2.79297 3.58984 2.6875 4 2.6875C4.41016 2.6875 4.78516 2.78711 5.125 2.98633C5.47656 3.18555 5.75195 3.46094 5.95117 3.8125C6.15039 4.15234 6.25 4.52734 6.25 4.9375V5.5H7.375V4.9375C7.375 4.38672 7.25195 3.87695 7.00586 3.4082C6.75977 2.92773 6.41992 2.53516 5.98633 2.23047C5.56445 1.91406 5.08984 1.70898 4.5625 1.61523V0.4375H3.4375Z" fill="#777777"/>
</svg>
