<svg width="82" height="16" viewBox="0 0 82 16" fill="none" xmlns="http://www.w3.org/2000/svg">
<path d="M5.43538 2.49483C6.01334 2.49483 6.57833 2.66516 7.05889 2.9843C7.53945 3.30343 7.914 3.75702 8.13518 4.28772C8.35636 4.81842 8.41423 5.40239 8.30147 5.96577C8.18872 6.52916 7.9104 7.04666 7.50172 7.45284C7.09304 7.85902 6.57234 8.13563 6.00548 8.2477C5.43862 8.35976 4.85105 8.30225 4.31708 8.08242C3.78311 7.8626 3.32672 7.49034 3.00562 7.01273C2.68452 6.53511 2.51313 5.97359 2.51313 5.39916C2.51313 4.62889 2.82101 3.89016 3.36904 3.34549C3.91707 2.80082 4.66035 2.49483 5.43538 2.49483ZM5.43538 0C4.36036 0 3.30949 0.316826 2.41565 0.910413C1.5218 1.504 0.825137 2.34769 0.413746 3.33479C0.00235508 4.32189 -0.105284 5.40806 0.104442 6.45596C0.314167 7.50386 0.831836 8.46642 1.59199 9.22191C2.35214 9.9774 3.32063 10.4919 4.37499 10.7003C5.42935 10.9088 6.52222 10.8018 7.51541 10.3929C8.50859 9.98406 9.35748 9.29166 9.95473 8.4033C10.552 7.51493 10.8708 6.4705 10.8708 5.40207C10.8692 3.96982 10.2961 2.59668 9.27706 1.58393C8.25807 0.571176 6.87646 0.00153757 5.43538 0V0Z" fill="white"/>
<path d="M10.561 16C7.23144 14.9255 3.64517 14.9255 0.315613 16V13.1712C3.64668 12.0936 7.23578 12.0936 10.5668 13.1712L10.561 16Z" fill="white"/>
<path d="M17.3114 14.8022V2.63888H25.1839V4.67191H19.6317V7.62272H24.4651V9.65576H19.6258V14.7964L17.3114 14.8022ZM31.5135 13.2862H31.4258C31.3451 13.5164 31.2361 13.7359 31.1015 13.9397C30.962 14.1472 30.7904 14.3314 30.593 14.4857C30.3728 14.6565 30.1233 14.7864 29.8566 14.869C29.5358 14.967 29.2015 15.014 28.866 15.0085C28.4562 15.0339 28.0461 14.9636 27.6686 14.8032C27.291 14.6428 26.9565 14.3968 26.6918 14.0849C26.1892 13.4692 25.9379 12.592 25.9379 11.4535V5.70586H28.1822V11.2241C28.1458 11.7348 28.2749 12.2437 28.5504 12.6763C28.6899 12.8473 28.8692 12.9819 29.0729 13.0685C29.2766 13.155 29.4985 13.1909 29.7193 13.1729C29.9413 13.1729 30.1624 13.1436 30.3768 13.0858C30.5875 13.0346 30.786 12.9428 30.9612 12.8157C31.1252 12.6934 31.2624 12.5393 31.3645 12.3626C31.4734 12.1684 31.5279 11.9488 31.5223 11.7266V5.70586H33.7666V14.8022H31.5223L31.5135 13.2862ZM35.5462 14.8022V5.70586H37.7905V7.22483H37.8782C38.0566 6.74582 38.359 6.32206 38.7548 5.99629C39.2369 5.64022 39.8297 5.46438 40.4293 5.49965C40.8391 5.47425 41.2491 5.54455 41.6267 5.70493C42.0042 5.8653 42.3387 6.1113 42.6034 6.42323C43.1061 7.03895 43.3574 7.91606 43.3574 9.05456V14.8052H41.1131V9.28691C41.1465 8.77876 41.0242 8.27248 40.7624 7.83474C40.6242 7.66271 40.4448 7.5279 40.2406 7.44265C40.0363 7.35741 39.8139 7.32445 39.5935 7.34681C39.365 7.34604 39.1376 7.37833 38.9185 7.44265C38.7083 7.50524 38.5105 7.6035 38.334 7.73309C38.1659 7.85338 38.0255 8.00782 37.922 8.18616C37.8131 8.38034 37.7586 8.59999 37.7642 8.82221V14.8342L35.5462 14.8022ZM50.7302 13.2862H50.6425C50.4873 13.7982 50.1591 14.2414 49.7133 14.5409C49.2436 14.8588 48.6859 15.0232 48.1177 15.0114C46.9605 15.0114 46.0751 14.5989 45.4614 13.7741C44.8477 12.9493 44.5409 11.7701 44.5409 10.2366C44.5409 8.71475 44.8477 7.5443 45.4614 6.72528C46.0751 5.90626 46.9605 5.49674 48.1177 5.49674C48.6846 5.48477 49.2415 5.64595 49.7133 5.95853C50.1597 6.25352 50.4883 6.69423 50.6425 7.2045H50.7302V1.90698H52.9745V14.8022H50.7302V13.2862ZM48.8366 13.1642C49.316 13.1812 49.7886 13.047 50.1867 12.7808C50.3634 12.6586 50.506 12.4937 50.6011 12.3017C50.6961 12.1096 50.7406 11.8968 50.7302 11.683V8.77865C50.7349 8.57064 50.6877 8.36472 50.5929 8.17924C50.4981 7.99376 50.3585 7.8345 50.1867 7.71566C49.7929 7.4388 49.3186 7.29799 48.8366 7.31486C48.573 7.30408 48.3102 7.35046 48.0665 7.45077C47.8227 7.55107 47.6039 7.70291 47.4251 7.89573C47.0529 8.32857 46.8615 8.88666 46.8904 9.45536V11.0237C46.8605 11.5899 47.0521 12.1457 47.4251 12.5746C47.6037 12.7682 47.8223 12.9212 48.0659 13.023C48.3096 13.1247 48.5725 13.1729 48.8366 13.1642ZM56.0779 14.9939C55.8859 15.01 55.6926 14.9866 55.5101 14.9251C55.3276 14.8636 55.1598 14.7655 55.0171 14.6367C54.9024 14.5141 54.8131 14.3701 54.7544 14.2131C54.6957 14.0562 54.6688 13.8892 54.6752 13.7218V13.4082C54.6635 13.0677 54.7862 12.7362 55.0171 12.4846C55.3209 12.2474 55.696 12.1185 56.0823 12.1185C56.4686 12.1185 56.8437 12.2474 57.1474 12.4846C57.3734 12.7387 57.4926 13.0693 57.4806 13.4082V13.7218C57.4937 14.0583 57.3742 14.3865 57.1474 14.6367C57.004 14.7669 56.8348 14.8659 56.6506 14.9274C56.4664 14.9889 56.2714 15.0116 56.0779 14.9939ZM58.5501 14.8022V5.70586H60.7827V7.22483H60.8704C61.0421 6.75374 61.3317 6.33392 61.712 6.005C62.1685 5.64437 62.743 5.46436 63.3251 5.49965C63.9021 5.48425 64.4704 5.64215 64.9557 5.95273C65.4371 6.28869 65.7943 6.77229 65.9726 7.32938H66.0077C66.1823 6.80347 66.5238 6.34796 66.9808 6.03114C67.5175 5.6613 68.1605 5.47477 68.8131 5.49965C69.2084 5.47788 69.6032 5.55034 69.9646 5.711C70.326 5.87166 70.6436 6.11585 70.8908 6.42323C71.3759 7.03895 71.6184 7.91606 71.6184 9.05456V14.8052H69.3741V9.28691C69.3741 7.98576 68.8871 7.33519 67.913 7.33519C67.696 7.33442 67.4802 7.36675 67.273 7.43103C67.0757 7.49433 66.8915 7.59274 66.7295 7.72147C66.5719 7.84315 66.4432 7.99784 66.3525 8.17455C66.2549 8.37225 66.2068 8.59045 66.2123 8.8106V14.8226H63.968V9.30433C63.968 8.00319 63.4809 7.35262 62.5068 7.35262C62.2957 7.35276 62.0857 7.38508 61.8844 7.44846C61.687 7.51176 61.5029 7.61017 61.3409 7.73889C61.1823 7.86192 61.051 8.01616 60.9551 8.19197C60.852 8.38799 60.8007 8.60687 60.8061 8.82802V14.84L58.5501 14.8022ZM76.9427 15.0114C76.3209 15.0221 75.7033 14.9064 75.128 14.6716C74.6117 14.4561 74.1504 14.1286 73.778 13.7131C73.3955 13.2758 73.1062 12.766 72.9276 12.2145C72.7228 11.5753 72.6241 10.9073 72.6354 10.2366C72.6274 9.57473 72.7261 8.91583 72.9276 8.28491C73.1015 7.73765 73.3848 7.2309 73.7604 6.79498C74.1264 6.37995 74.5819 6.05234 75.093 5.83655C75.6592 5.60216 76.2681 5.48648 76.8814 5.49674C77.5204 5.48176 78.1549 5.60669 78.7399 5.86269C79.2438 6.08969 79.688 6.42968 80.0374 6.85598C80.3832 7.28681 80.6422 7.77986 80.8001 8.30815C80.9728 8.8819 81.0585 9.47803 81.0543 10.0769V10.8088H74.9615V11.0353C74.9337 11.6155 75.135 12.1834 75.5225 12.6182C75.7425 12.8281 76.0046 12.9897 76.2915 13.0922C76.5785 13.1948 76.8841 13.2362 77.1882 13.2136C77.671 13.2336 78.1493 13.1135 78.5646 12.868C78.9296 12.6323 79.2526 12.3379 79.5202 11.9967L80.73 13.3239C80.3382 13.867 79.8075 14.2962 79.1929 14.567C78.484 14.8752 77.7163 15.0269 76.9427 15.0114ZM76.9077 7.16964C76.6425 7.15617 76.3776 7.20127 76.132 7.30171C75.8864 7.40215 75.6663 7.55542 75.4875 7.75051C75.1252 8.17822 74.9375 8.72542 74.9615 9.284V9.42341H78.7136V9.26658C78.7392 8.7204 78.5752 8.18208 78.249 7.7418C78.0866 7.54817 77.8804 7.39542 77.6473 7.29599C77.4142 7.19656 77.1608 7.15327 76.9077 7.16964Z" fill="white"/>
</svg>
