<svg width="14" height="18" viewBox="0 0 14 18" fill="none" xmlns="http://www.w3.org/2000/svg">
<path d="M7 0.194443C6.6224 0.194443 6.29036 0.318141 6.00391 0.565536C5.73047 0.786891 5.52214 1.07986 5.37891 1.44444H0.125V17.0694H13.875V1.44444H8.62109C8.47786 1.07986 8.26953 0.786891 7.99609 0.565536C7.70964 0.318141 7.3776 0.194443 7 0.194443ZM7 1.44444C7.16927 1.44444 7.3125 1.50955 7.42969 1.63976C7.5599 1.75694 7.625 1.90017 7.625 2.06944V2.69444H9.5V3.94444H4.5V2.69444H6.375V2.06944C6.375 1.90017 6.43359 1.75694 6.55078 1.63976C6.68099 1.50955 6.83073 1.44444 7 1.44444ZM1.375 2.69444H3.25V5.19444H10.75V2.69444H12.625V15.8194H1.375V2.69444ZM2.625 7.06944V8.31944H3.875V7.06944H2.625ZM5.125 7.06944V8.31944H11.375V7.06944H5.125ZM2.625 9.56944V10.8194H3.875V9.56944H2.625ZM5.125 9.56944V10.8194H11.375V9.56944H5.125ZM2.625 12.0694V13.3194H3.875V12.0694H2.625ZM5.125 12.0694V13.3194H11.375V12.0694H5.125Z" fill="#444444" fill-opacity="0.5"/>
</svg>
