<svg width="17" height="19" viewBox="0 0 17 19" fill="none" xmlns="http://www.w3.org/2000/svg">
<path d="M0.75 0.875V17.125H10.75V15.875H2V2.125H8.25V5.875H12V7.125H13.25V4.99609L9.12891 0.875H0.75ZM9.5 3.00391L11.1211 4.625H9.5V3.00391ZM3.25 7.125V8.375H10.75V7.125H3.25ZM13.875 8.375V9.625C13.3411 9.71615 12.8919 9.96354 12.5273 10.3672C12.1758 10.7708 12 11.2526 12 11.8125C12 12.4375 12.2083 12.9583 12.625 13.375C13.0417 13.7917 13.5625 14 14.1875 14H14.8125C15.0599 14 15.2747 14.0977 15.457 14.293C15.6523 14.4753 15.75 14.6901 15.75 14.9375C15.75 15.1849 15.6523 15.4062 15.457 15.6016C15.2747 15.7839 15.0599 15.875 14.8125 15.875H12.625V17.125H13.875V18.375H15.125V17.125C15.6589 17.0339 16.1016 16.7865 16.4531 16.3828C16.8177 15.9792 17 15.4974 17 14.9375C17 14.3125 16.7917 13.7917 16.375 13.375C15.9583 12.9583 15.4375 12.75 14.8125 12.75H14.1875C13.9401 12.75 13.7188 12.6589 13.5234 12.4766C13.3411 12.2812 13.25 12.0599 13.25 11.8125C13.25 11.5651 13.3411 11.3503 13.5234 11.168C13.7188 10.9727 13.9401 10.875 14.1875 10.875H16.375V9.625H15.125V8.375H13.875ZM3.25 10.25V11.5H7.625V10.25H3.25ZM8.875 10.25V11.5H10.75V10.25H8.875ZM3.25 12.75V14H7.625V12.75H3.25ZM8.875 12.75V14H10.75V12.75H8.875Z" fill="#444444" fill-opacity="0.5"/>
</svg>
