<svg width="17" height="17" viewBox="0 0 17 17" fill="none" xmlns="http://www.w3.org/2000/svg">
<path d="M9.875 0.875C8.74219 0.875 7.69401 1.16146 6.73047 1.73438C5.77995 2.28125 5.03125 3.02995 4.48438 3.98047C3.91146 4.94401 3.625 5.99219 3.625 7.125C3.625 7.86719 3.7487 8.57682 3.99609 9.25391C4.24349 9.91797 4.58854 10.5234 5.03125 11.0703L0.0507812 16.0508L0.949219 16.9492L5.92969 11.9688C6.47656 12.4245 7.08203 12.776 7.74609 13.0234C8.42318 13.2578 9.13281 13.375 9.875 13.375C11.0078 13.375 12.056 13.0885 13.0195 12.5156C13.9701 11.9688 14.7188 11.2201 15.2656 10.2695C15.8385 9.30599 16.125 8.25781 16.125 7.125C16.125 5.99219 15.8385 4.94401 15.2656 3.98047C14.7188 3.02995 13.9701 2.28125 13.0195 1.73438C12.056 1.16146 11.0078 0.875 9.875 0.875ZM9.875 2.125C10.7865 2.125 11.6198 2.35286 12.375 2.80859C13.1432 3.2513 13.7487 3.85677 14.1914 4.625C14.6471 5.38021 14.875 6.21354 14.875 7.125C14.875 8.03646 14.6471 8.8763 14.1914 9.64453C13.7487 10.3997 13.1432 11.0052 12.375 11.4609C11.6198 11.9036 10.7865 12.125 9.875 12.125C8.96354 12.125 8.1237 11.9036 7.35547 11.4609C6.60026 11.0052 5.99479 10.3997 5.53906 9.64453C5.09635 8.8763 4.875 8.03646 4.875 7.125C4.875 6.21354 5.09635 5.38021 5.53906 4.625C5.99479 3.85677 6.60026 3.2513 7.35547 2.80859C8.1237 2.35286 8.96354 2.125 9.875 2.125ZM9.25 4V4.66406C8.89844 4.72917 8.59896 4.89844 8.35156 5.17188C8.11719 5.43229 8 5.74479 8 6.10938C8 6.34375 8.05859 6.5651 8.17578 6.77344C8.30599 6.96875 8.47526 7.11849 8.68359 7.22266L10.5 8.14062C10.5 8.20573 10.474 8.26432 10.4219 8.31641C10.3828 8.35547 10.3307 8.375 10.2656 8.375H9.48438C9.41927 8.375 9.36068 8.35547 9.30859 8.31641C9.26953 8.26432 9.25 8.20573 9.25 8.14062V7.75H8V8.14062C8 8.50521 8.11719 8.82422 8.35156 9.09766C8.59896 9.35807 8.89844 9.52083 9.25 9.58594V10.25H10.5V9.58594C10.8516 9.52083 11.1445 9.35807 11.3789 9.09766C11.6263 8.82422 11.75 8.50521 11.75 8.14062C11.75 7.90625 11.6849 7.69141 11.5547 7.49609C11.4375 7.28776 11.2747 7.13151 11.0664 7.02734L9.25 6.10938C9.25 6.04427 9.26953 5.99219 9.30859 5.95312C9.36068 5.90104 9.41927 5.875 9.48438 5.875H10.2656C10.3307 5.875 10.3828 5.90104 10.4219 5.95312C10.474 5.99219 10.5 6.04427 10.5 6.10938V6.5H11.75V6.10938C11.75 5.74479 11.6263 5.43229 11.3789 5.17188C11.1445 4.89844 10.8516 4.72917 10.5 4.66406V4H9.25Z" fill="#444444" fill-opacity="0.5"/>
</svg>
