<svg width="14" height="17" viewBox="0 0 14 17" fill="none" xmlns="http://www.w3.org/2000/svg">
<path d="M7 0.375C6.64844 0.375 6.34896 0.498698 6.10156 0.746094C5.86719 0.980469 5.75 1.27344 5.75 1.625L5.76953 1.78125C5.05339 1.96354 4.40885 2.28906 3.83594 2.75781C3.26302 3.22656 2.8138 3.79948 2.48828 4.47656C2.16276 5.14062 2 5.85677 2 6.625V12.25C2 12.4323 1.94141 12.582 1.82422 12.6992C1.70703 12.8164 1.55729 12.875 1.375 12.875H0.75V14.125H5.24219C5.16406 14.3464 5.125 14.5547 5.125 14.75C5.125 15.2578 5.30729 15.694 5.67188 16.0586C6.04948 16.4362 6.49219 16.625 7 16.625C7.50781 16.625 7.94401 16.4362 8.30859 16.0586C8.6862 15.694 8.875 15.2578 8.875 14.75C8.875 14.5547 8.83594 14.3464 8.75781 14.125H13.25V12.875H12.625C12.4427 12.875 12.293 12.8164 12.1758 12.6992C12.0586 12.582 12 12.4323 12 12.25V6.80078C12 6.03255 11.8372 5.30339 11.5117 4.61328C11.1992 3.91016 10.7565 3.3112 10.1836 2.81641C9.61068 2.32161 8.95964 1.97656 8.23047 1.78125L8.25 1.625C8.25 1.27344 8.1263 0.980469 7.87891 0.746094C7.64453 0.498698 7.35156 0.375 7 0.375ZM6.72656 2.875C6.76562 2.875 6.82422 2.875 6.90234 2.875H7.11719C7.78125 2.90104 8.39323 3.09635 8.95312 3.46094C9.51302 3.8125 9.94922 4.28776 10.2617 4.88672C10.5872 5.48568 10.75 6.1237 10.75 6.80078V12.25C10.75 12.4453 10.7891 12.6536 10.8672 12.875H3.13281C3.21094 12.6536 3.25 12.4453 3.25 12.25V6.625C3.25 5.97396 3.39974 5.375 3.69922 4.82812C4.01172 4.26823 4.4349 3.81901 4.96875 3.48047C5.5026 3.12891 6.08854 2.92708 6.72656 2.875ZM7 14.125C7.18229 14.125 7.33203 14.1836 7.44922 14.3008C7.56641 14.418 7.625 14.5677 7.625 14.75C7.625 14.9193 7.56641 15.069 7.44922 15.1992C7.33203 15.3164 7.18229 15.375 7 15.375C6.83073 15.375 6.68099 15.3164 6.55078 15.1992C6.43359 15.069 6.375 14.9193 6.375 14.75C6.375 14.5677 6.43359 14.418 6.55078 14.3008C6.68099 14.1836 6.83073 14.125 7 14.125Z" fill="white"/>
</svg>
