<svg width="14" height="15" viewBox="0 0 14 15" fill="none" xmlns="http://www.w3.org/2000/svg">
<path d="M7.42969 0.375L7.23438 0.550781L2.99609 4.75H0.125V14.75H10.6523C11.0951 14.75 11.4857 14.6133 11.8242 14.3398C12.1758 14.0534 12.3971 13.6953 12.4883 13.2656L13.8359 7.01562C13.9141 6.63802 13.8815 6.27344 13.7383 5.92188C13.5951 5.57031 13.3672 5.29036 13.0547 5.08203C12.7422 4.86068 12.3906 4.75 12 4.75H8.40625L8.52344 4.28125L8.58203 4.24219C8.69922 4.15104 8.8099 4.03385 8.91406 3.89062C9.30469 3.35677 9.5 2.73828 9.5 2.03516C9.5 1.57943 9.31771 1.1888 8.95312 0.863281C8.60156 0.53776 8.17839 0.375 7.68359 0.375H7.42969ZM7.87891 1.68359C8.1263 1.73568 8.25 1.85286 8.25 2.03516C8.25 2.49089 8.13932 2.86849 7.91797 3.16797C7.85286 3.25911 7.78776 3.33073 7.72266 3.38281L7.64453 3.44141L7.42969 3.55859L7.35156 3.8125L6.98047 5.21875L6.78516 6H12C12.2083 6 12.3711 6.07812 12.4883 6.23438C12.6055 6.3776 12.6445 6.55339 12.6055 6.76172L11.2773 13.0117C11.2513 13.1549 11.1797 13.2721 11.0625 13.3633C10.9453 13.4544 10.8086 13.5 10.6523 13.5H3.875V5.62891L7.87891 1.68359ZM1.375 6H2.625V13.5H1.375V6Z" fill="#777777" fill-opacity="0.5"/>
</svg>
