<svg width="16" height="15" viewBox="0 0 16 15" fill="none" xmlns="http://www.w3.org/2000/svg">
<path d="M0.5 0.625V4.375H1.125V14.375H14.875V4.375H15.5V0.625H0.5ZM1.75 1.875H14.25V3.125H1.75V1.875ZM2.375 4.375H13.625V13.125H2.375V4.375ZM6.00781 5.625C5.83854 5.63802 5.69531 5.71615 5.57812 5.85938C5.47396 5.98958 5.42839 6.13932 5.44141 6.30859C5.45443 6.47786 5.52604 6.62109 5.65625 6.73828C5.79948 6.84245 5.95573 6.88802 6.125 6.875H9.875C9.99219 6.875 10.0964 6.84896 10.1875 6.79688C10.2917 6.74479 10.3698 6.67318 10.4219 6.58203C10.474 6.47786 10.5 6.36719 10.5 6.25C10.5 6.13281 10.474 6.02865 10.4219 5.9375C10.3698 5.83333 10.2917 5.75521 10.1875 5.70312C10.0964 5.65104 9.99219 5.625 9.875 5.625H6.00781Z" fill="#777777" fill-opacity="0.5"/>
</svg>
