<svg width="18" height="17" viewBox="0 0 18 17" fill="none" xmlns="http://www.w3.org/2000/svg">
<path d="M9 0.375C7.52865 0.375 6.16146 0.746094 4.89844 1.48828C3.67448 2.20443 2.70443 3.17448 1.98828 4.39844C1.24609 5.66146 0.875 7.02865 0.875 8.5C0.875 9.97135 1.24609 11.3385 1.98828 12.6016C2.70443 13.8255 3.67448 14.7956 4.89844 15.5117C6.16146 16.2539 7.52865 16.625 9 16.625C10.4714 16.625 11.8385 16.2539 13.1016 15.5117C14.3255 14.7956 15.2956 13.8255 16.0117 12.6016C16.7539 11.3385 17.125 9.97135 17.125 8.5C17.125 7.02865 16.7539 5.66146 16.0117 4.39844C15.2956 3.17448 14.3255 2.20443 13.1016 1.48828C11.8385 0.746094 10.4714 0.375 9 0.375ZM9 1.625C10.25 1.625 11.4089 1.9375 12.4766 2.5625C13.5052 3.17448 14.3255 3.99479 14.9375 5.02344C15.5625 6.09115 15.875 7.25 15.875 8.5C15.875 9.75 15.5625 10.9089 14.9375 11.9766C14.3255 13.0052 13.5052 13.8255 12.4766 14.4375C11.4089 15.0625 10.25 15.375 9 15.375C7.75 15.375 6.59115 15.0625 5.52344 14.4375C4.49479 13.8255 3.67448 13.0052 3.0625 11.9766C2.4375 10.9089 2.125 9.75 2.125 8.5C2.125 7.25 2.4375 6.09115 3.0625 5.02344C3.67448 3.99479 4.49479 3.17448 5.52344 2.5625C6.59115 1.9375 7.75 1.625 9 1.625ZM6.63672 5.23828L5.73828 6.13672L8.10156 8.5L5.73828 10.8633L6.63672 11.7617L9 9.39844L11.3633 11.7617L12.2617 10.8633L9.89844 8.5L12.2617 6.13672L11.3633 5.23828L9 7.60156L6.63672 5.23828Z" fill="#777777" fill-opacity="0.5"/>
</svg>
