<svg width="16" height="17" viewBox="0 0 16 17" fill="none" xmlns="http://www.w3.org/2000/svg">
<path d="M11.75 0.746094L8.91797 3.55859L4.71875 4.76953C4.30208 4.88672 3.9375 5.09505 3.625 5.39453C3.3125 5.68099 3.09115 6.02604 2.96094 6.42969L0.421875 14.3008L2.19922 16.0781L10.0703 13.5391C10.474 13.4089 10.819 13.1875 11.1055 12.875C11.4049 12.5625 11.6133 12.2044 11.7305 11.8008L12.9219 7.58203L15.7539 4.75L11.75 0.746094ZM11.75 2.50391L13.9961 4.75L12.375 6.37109L10.1289 4.125L11.75 2.50391ZM9.07422 4.82812L11.6719 7.42578L10.5195 11.4688C10.4674 11.6771 10.3633 11.8594 10.207 12.0156C10.0638 12.1719 9.88802 12.2826 9.67969 12.3477L2.80469 14.5742L6.4375 10.9609C6.54167 10.987 6.64583 11 6.75 11C7.10156 11 7.39453 10.8828 7.62891 10.6484C7.8763 10.401 8 10.1016 8 9.75C8 9.39844 7.8763 9.10547 7.62891 8.87109C7.39453 8.6237 7.10156 8.5 6.75 8.5C6.55469 8.5 6.36589 8.54557 6.18359 8.63672C6.01432 8.71484 5.87109 8.83203 5.75391 8.98828C5.63672 9.14453 5.55859 9.32031 5.51953 9.51562C5.48047 9.69792 5.48698 9.88021 5.53906 10.0625L1.92578 13.6953L4.15234 6.82031C4.21745 6.61198 4.32812 6.4362 4.48438 6.29297C4.64062 6.13672 4.82943 6.03255 5.05078 5.98047L9.07422 4.82812Z" fill="white"/>
</svg>
