<svg width="4" height="14" viewBox="0 0 4 14" fill="none" xmlns="http://www.w3.org/2000/svg">
<path d="M1.85876 0.570007C1.5072 0.570007 1.20772 0.693705 0.960327 0.941101C0.725952 1.17548 0.608765 1.46844 0.608765 1.82001C0.608765 2.17157 0.725952 2.47105 0.960327 2.71844C1.20772 2.95282 1.5072 3.07001 1.85876 3.07001C2.21033 3.07001 2.5033 2.95282 2.73767 2.71844C2.98507 2.47105 3.10876 2.17157 3.10876 1.82001C3.10876 1.46844 2.98507 1.17548 2.73767 0.941101C2.5033 0.693705 2.21033 0.570007 1.85876 0.570007ZM1.85876 5.57001C1.5072 5.57001 1.20772 5.69371 0.960327 5.9411C0.725952 6.17548 0.608765 6.46844 0.608765 6.82001C0.608765 7.17157 0.725952 7.47105 0.960327 7.71844C1.20772 7.95282 1.5072 8.07001 1.85876 8.07001C2.21033 8.07001 2.5033 7.95282 2.73767 7.71844C2.98507 7.47105 3.10876 7.17157 3.10876 6.82001C3.10876 6.46844 2.98507 6.17548 2.73767 5.9411C2.5033 5.69371 2.21033 5.57001 1.85876 5.57001ZM1.85876 10.57C1.5072 10.57 1.20772 10.6937 0.960327 10.9411C0.725952 11.1755 0.608765 11.4684 0.608765 11.82C0.608765 12.1716 0.725952 12.471 0.960327 12.7184C1.20772 12.9528 1.5072 13.07 1.85876 13.07C2.21033 13.07 2.5033 12.9528 2.73767 12.7184C2.98507 12.471 3.10876 12.1716 3.10876 11.82C3.10876 11.4684 2.98507 11.1755 2.73767 10.9411C2.5033 10.6937 2.21033 10.57 1.85876 10.57Z" fill="#2C8EDE"/>
</svg>
