<svg width="14" height="16" viewBox="0 0 14 16" fill="none" xmlns="http://www.w3.org/2000/svg">
<path d="M6.95877 0.375C6.61893 0.375 6.3201 0.486328 6.06229 0.708984C5.81619 0.908203 5.62869 1.17188 5.49979 1.5H0.771271V15.5625H13.1463V1.5H8.41776C8.28885 1.17188 8.10135 0.908203 7.85526 0.708984C7.59744 0.486328 7.29861 0.375 6.95877 0.375ZM6.95877 1.5C7.11111 1.5 7.24002 1.55859 7.34549 1.67578C7.46268 1.78125 7.52127 1.91016 7.52127 2.0625V2.625H9.20877V3.75H4.70877V2.625H6.39627V2.0625C6.39627 1.91016 6.44901 1.78125 6.55447 1.67578C6.67166 1.55859 6.80643 1.5 6.95877 1.5ZM1.89627 2.625H3.58377V4.875H10.3338V2.625H12.0213V14.4375H1.89627V2.625ZM3.02127 6.5625V7.6875H4.14627V6.5625H3.02127ZM5.27127 6.5625V7.6875H10.8963V6.5625H5.27127ZM3.02127 8.8125V9.9375H4.14627V8.8125H3.02127ZM5.27127 8.8125V9.9375H10.8963V8.8125H5.27127ZM3.02127 11.0625V12.1875H4.14627V11.0625H3.02127ZM5.27127 11.0625V12.1875H10.8963V11.0625H5.27127Z" fill="#2C8EDE"/>
</svg>
