<svg width="14" height="14" viewBox="0 0 14 14" fill="none" xmlns="http://www.w3.org/2000/svg">
<path d="M12.0625 0.517578C11.6055 0.517578 11.2129 0.681641 10.8848 1.00977L5.18945 6.6875L4.76758 8.83203L4.5918 9.6582L5.41797 9.48242L7.5625 9.06055L13.2402 3.36523C13.5684 3.03711 13.7324 2.64453 13.7324 2.1875C13.7324 1.73047 13.5684 1.33789 13.2402 1.00977C12.9121 0.681641 12.5195 0.517578 12.0625 0.517578ZM12.0625 1.60742C12.1914 1.60742 12.3203 1.67187 12.4492 1.80078C12.5781 1.92969 12.6426 2.05859 12.6426 2.1875C12.6426 2.31641 12.5781 2.44531 12.4492 2.57422L7 8.02344L6.0332 8.2168L6.22656 7.25L11.6758 1.80078C11.8047 1.67187 11.9336 1.60742 12.0625 1.60742ZM0.25 2.75V14H11.5V6.58203L10.375 7.70703V12.875H1.375V3.875H6.54297L7.66797 2.75H0.25Z" fill="#2C8EDE"/>
</svg>
