<svg width="512" height="36" viewBox="0 0 512 36" fill="none" xmlns="http://www.w3.org/2000/svg">
<path d="M470 0H504C508.418 0 512 3.58172 512 8V28C512 32.4183 508.418 36 504 36H470L476.524 20.7331C477.405 18.6728 477.381 16.3377 476.458 14.2958L470 0Z" fill="#F2F2F2"/>
<path d="M492 10.9375C490.676 10.9375 489.445 11.2715 488.309 11.9395C487.207 12.584 486.334 13.457 485.689 14.5586C485.021 15.6953 484.688 16.9258 484.688 18.25C484.688 19.5742 485.021 20.8047 485.689 21.9414C486.334 23.043 487.207 23.916 488.309 24.5605C489.445 25.2285 490.676 25.5625 492 25.5625C493.324 25.5625 494.555 25.2285 495.691 24.5605C496.793 23.916 497.666 23.043 498.311 21.9414C498.979 20.8047 499.312 19.5742 499.312 18.25C499.312 16.9258 498.979 15.6953 498.311 14.5586C497.666 13.457 496.793 12.584 495.691 11.9395C494.555 11.2715 493.324 10.9375 492 10.9375ZM492 12.0625C493.113 12.0625 494.156 12.3438 495.129 12.9062C496.055 13.457 496.793 14.1953 497.344 15.1211C497.906 16.0938 498.188 17.1367 498.188 18.25C498.188 19.3633 497.906 20.4062 497.344 21.3789C496.793 22.3047 496.055 23.043 495.129 23.5938C494.156 24.1562 493.113 24.4375 492 24.4375C490.887 24.4375 489.844 24.1562 488.871 23.5938C487.945 23.043 487.207 22.3047 486.656 21.3789C486.094 20.4062 485.812 19.3633 485.812 18.25C485.812 17.1367 486.094 16.0938 486.656 15.1211C487.207 14.1953 487.945 13.457 488.871 12.9062C489.844 12.3438 490.887 12.0625 492 12.0625ZM489.469 16C489.234 16 489.035 16.082 488.871 16.2461C488.707 16.4102 488.625 16.6094 488.625 16.8438C488.625 17.0781 488.707 17.2773 488.871 17.4414C489.035 17.6055 489.234 17.6875 489.469 17.6875C489.703 17.6875 489.902 17.6055 490.066 17.4414C490.23 17.2773 490.312 17.0781 490.312 16.8438C490.312 16.6094 490.23 16.4102 490.066 16.2461C489.902 16.082 489.703 16 489.469 16ZM494.531 16C494.297 16 494.098 16.082 493.934 16.2461C493.77 16.4102 493.688 16.6094 493.688 16.8438C493.688 17.0781 493.77 17.2773 493.934 17.4414C494.098 17.6055 494.297 17.6875 494.531 17.6875C494.766 17.6875 494.965 17.6055 495.129 17.4414C495.293 17.2773 495.375 17.0781 495.375 16.8438C495.375 16.6094 495.293 16.4102 495.129 16.2461C494.965 16.082 494.766 16 494.531 16ZM488.062 19.9375C488.098 20.0312 488.139 20.1309 488.186 20.2363C488.291 20.4707 488.42 20.6992 488.572 20.9219C488.783 21.2383 489.029 21.5195 489.311 21.7656C489.65 22.0586 490.02 22.2871 490.418 22.4512C490.91 22.6504 491.438 22.75 492 22.75C492.562 22.75 493.09 22.6504 493.582 22.4512C493.98 22.2871 494.35 22.0586 494.689 21.7656C494.971 21.5195 495.217 21.2383 495.428 20.9219C495.58 20.6992 495.709 20.4707 495.814 20.2363L495.938 19.9375H488.062Z" fill="#444444" fill-opacity="0.5"/>
<path d="M427 0H465.959L471.86 15.0858C472.593 16.9595 472.593 19.0405 471.86 20.9142L465.959 36H427L432.57 20.7435C433.217 18.9717 433.217 17.0283 432.57 15.2565L427 0Z" fill="#F2F2F2"/>
<path d="M450 10.9375C448.676 10.9375 447.445 11.2715 446.309 11.9395C445.207 12.584 444.334 13.457 443.689 14.5586C443.021 15.6953 442.688 16.9258 442.688 18.25C442.688 19.5742 443.021 20.8047 443.689 21.9414C444.334 23.043 445.207 23.916 446.309 24.5605C447.445 25.2285 448.676 25.5625 450 25.5625C451.324 25.5625 452.555 25.2285 453.691 24.5605C454.793 23.916 455.666 23.043 456.311 21.9414C456.979 20.8047 457.312 19.5742 457.312 18.25C457.312 16.9258 456.979 15.6953 456.311 14.5586C455.666 13.457 454.793 12.584 453.691 11.9395C452.555 11.2715 451.324 10.9375 450 10.9375ZM450 12.0625C451.113 12.0625 452.156 12.3438 453.129 12.9062C454.055 13.457 454.793 14.1953 455.344 15.1211C455.906 16.0938 456.188 17.1367 456.188 18.25C456.188 19.3633 455.906 20.4062 455.344 21.3789C454.793 22.3047 454.055 23.043 453.129 23.5938C452.156 24.1562 451.113 24.4375 450 24.4375C448.887 24.4375 447.844 24.1562 446.871 23.5938C445.945 23.043 445.207 22.3047 444.656 21.3789C444.094 20.4062 443.812 19.3633 443.812 18.25C443.812 17.1367 444.094 16.0938 444.656 15.1211C445.207 14.1953 445.945 13.457 446.871 12.9062C447.844 12.3438 448.887 12.0625 450 12.0625ZM447.469 16C447.234 16 447.035 16.082 446.871 16.2461C446.707 16.4102 446.625 16.6094 446.625 16.8438C446.625 17.0781 446.707 17.2773 446.871 17.4414C447.035 17.6055 447.234 17.6875 447.469 17.6875C447.703 17.6875 447.902 17.6055 448.066 17.4414C448.23 17.2773 448.312 17.0781 448.312 16.8438C448.312 16.6094 448.23 16.4102 448.066 16.2461C447.902 16.082 447.703 16 447.469 16ZM452.531 16C452.297 16 452.098 16.082 451.934 16.2461C451.77 16.4102 451.688 16.6094 451.688 16.8438C451.688 17.0781 451.77 17.2773 451.934 17.4414C452.098 17.6055 452.297 17.6875 452.531 17.6875C452.766 17.6875 452.965 17.6055 453.129 17.4414C453.293 17.2773 453.375 17.0781 453.375 16.8438C453.375 16.6094 453.293 16.4102 453.129 16.2461C452.965 16.082 452.766 16 452.531 16ZM446.062 19.9375C446.098 20.0312 446.139 20.1309 446.186 20.2363C446.291 20.4707 446.42 20.6992 446.572 20.9219C446.783 21.2383 447.029 21.5195 447.311 21.7656C447.65 22.0586 448.02 22.2871 448.418 22.4512C448.91 22.6504 449.438 22.75 450 22.75C450.562 22.75 451.09 22.6504 451.582 22.4512C451.98 22.2871 452.35 22.0586 452.689 21.7656C452.971 21.5195 453.217 21.2383 453.428 20.9219C453.58 20.6992 453.709 20.4707 453.814 20.2363L453.938 19.9375H446.062Z" fill="#444444" fill-opacity="0.5"/>
<path d="M383 0H422.1L427.902 15.1365C428.609 16.9801 428.609 19.0199 427.902 20.8635L422.1 36H383L389.122 21.0278C389.915 19.0872 389.915 16.9128 389.122 14.9722L383 0Z" fill="#F2F2F2"/>
<path d="M406 10.9375C404.676 10.9375 403.445 11.2715 402.309 11.9395C401.207 12.584 400.334 13.457 399.689 14.5586C399.021 15.6953 398.688 16.9258 398.688 18.25C398.688 19.5742 399.021 20.8047 399.689 21.9414C400.334 23.043 401.207 23.916 402.309 24.5605C403.445 25.2285 404.676 25.5625 406 25.5625C407.324 25.5625 408.555 25.2285 409.691 24.5605C410.793 23.916 411.666 23.043 412.311 21.9414C412.979 20.8047 413.312 19.5742 413.312 18.25C413.312 16.9258 412.979 15.6953 412.311 14.5586C411.666 13.457 410.793 12.584 409.691 11.9395C408.555 11.2715 407.324 10.9375 406 10.9375ZM406 12.0625C407.113 12.0625 408.156 12.3438 409.129 12.9062C410.055 13.457 410.793 14.1953 411.344 15.1211C411.906 16.0938 412.188 17.1367 412.188 18.25C412.188 19.3633 411.906 20.4062 411.344 21.3789C410.793 22.3047 410.055 23.043 409.129 23.5938C408.156 24.1562 407.113 24.4375 406 24.4375C404.887 24.4375 403.844 24.1562 402.871 23.5938C401.945 23.043 401.207 22.3047 400.656 21.3789C400.094 20.4062 399.812 19.3633 399.812 18.25C399.812 17.1367 400.094 16.0938 400.656 15.1211C401.207 14.1953 401.945 13.457 402.871 12.9062C403.844 12.3438 404.887 12.0625 406 12.0625ZM403.469 16C403.234 16 403.035 16.082 402.871 16.2461C402.707 16.4102 402.625 16.6094 402.625 16.8438C402.625 17.0781 402.707 17.2773 402.871 17.4414C403.035 17.6055 403.234 17.6875 403.469 17.6875C403.703 17.6875 403.902 17.6055 404.066 17.4414C404.23 17.2773 404.312 17.0781 404.312 16.8438C404.312 16.6094 404.23 16.4102 404.066 16.2461C403.902 16.082 403.703 16 403.469 16ZM408.531 16C408.297 16 408.098 16.082 407.934 16.2461C407.77 16.4102 407.688 16.6094 407.688 16.8438C407.688 17.0781 407.77 17.2773 407.934 17.4414C408.098 17.6055 408.297 17.6875 408.531 17.6875C408.766 17.6875 408.965 17.6055 409.129 17.4414C409.293 17.2773 409.375 17.0781 409.375 16.8438C409.375 16.6094 409.293 16.4102 409.129 16.2461C408.965 16.082 408.766 16 408.531 16ZM402.062 19.9375C402.098 20.0312 402.139 20.1309 402.186 20.2363C402.291 20.4707 402.42 20.6992 402.572 20.9219C402.783 21.2383 403.029 21.5195 403.311 21.7656C403.65 22.0586 404.02 22.2871 404.418 22.4512C404.91 22.6504 405.438 22.75 406 22.75C406.562 22.75 407.09 22.6504 407.582 22.4512C407.98 22.2871 408.35 22.0586 408.689 21.7656C408.971 21.5195 409.217 21.2383 409.428 20.9219C409.58 20.6992 409.709 20.4707 409.814 20.2363L409.938 19.9375H402.062Z" fill="#444444" fill-opacity="0.5"/>
<path d="M0 8C0 3.58172 3.58172 0 8 0H378.533L385.398 14.5947C386.413 16.7516 386.413 19.2484 385.398 21.4053L378.533 36H7.99999C3.58171 36 0 32.4183 0 28V8Z" fill="#828282"/>
<path d="M280.428 23H274.58V21.8398L277.34 18.8984C277.719 18.4844 277.998 18.123 278.178 17.8145C278.361 17.5059 278.453 17.2129 278.453 16.9355C278.453 16.5566 278.357 16.2598 278.166 16.0449C277.975 15.8262 277.701 15.7168 277.346 15.7168C276.963 15.7168 276.66 15.8496 276.438 16.1152C276.219 16.377 276.109 16.7227 276.109 17.1523H274.41C274.41 16.6328 274.533 16.1582 274.779 15.7285C275.029 15.2988 275.381 14.9629 275.834 14.7207C276.287 14.4746 276.801 14.3516 277.375 14.3516C278.254 14.3516 278.936 14.5625 279.42 14.9844C279.908 15.4062 280.152 16.002 280.152 16.7715C280.152 17.1934 280.043 17.623 279.824 18.0605C279.605 18.498 279.23 19.0078 278.699 19.5898L276.76 21.6348H280.428V23ZM283.128 23.7324H282.196L285.759 14.4688H286.684L283.128 23.7324ZM294.453 15.0781L290.92 23H289.783L293.304 15.3594H288.687V14.4688H294.453V15.0781ZM307.616 20.293C307.511 21.1953 307.177 21.8926 306.614 22.3848C306.056 22.873 305.312 23.1172 304.382 23.1172C303.374 23.1172 302.566 22.7559 301.956 22.0332C301.351 21.3105 301.048 20.3438 301.048 19.1328V18.3125C301.048 17.5195 301.189 16.8223 301.47 16.2207C301.755 15.6191 302.157 15.1582 302.677 14.8379C303.196 14.5137 303.798 14.3516 304.482 14.3516C305.388 14.3516 306.114 14.6055 306.661 15.1133C307.208 15.6172 307.527 16.3164 307.616 17.2109H306.486C306.388 16.5312 306.175 16.0391 305.847 15.7344C305.523 15.4297 305.068 15.2773 304.482 15.2773C303.763 15.2773 303.198 15.543 302.788 16.0742C302.382 16.6055 302.179 17.3613 302.179 18.3418V19.168C302.179 20.0938 302.372 20.8301 302.759 21.377C303.146 21.9238 303.687 22.1973 304.382 22.1973C305.007 22.1973 305.486 22.0566 305.818 21.7754C306.154 21.4902 306.376 20.9961 306.486 20.293H307.616ZM316.92 19.0098C316.92 19.8457 316.779 20.5762 316.498 21.2012C316.217 21.8223 315.818 22.2969 315.303 22.625C314.787 22.9531 314.186 23.1172 313.498 23.1172C312.826 23.1172 312.23 22.9531 311.711 22.625C311.191 22.293 310.787 21.8223 310.498 21.2129C310.213 20.5996 310.066 19.8906 310.059 19.0859V18.4707C310.059 17.6504 310.201 16.9258 310.486 16.2969C310.771 15.668 311.174 15.1875 311.693 14.8555C312.217 14.5195 312.814 14.3516 313.486 14.3516C314.17 14.3516 314.771 14.5176 315.291 14.8496C315.814 15.1777 316.217 15.6562 316.498 16.2852C316.779 16.9102 316.92 17.6387 316.92 18.4707V19.0098ZM315.801 18.459C315.801 17.4473 315.598 16.6719 315.191 16.1328C314.785 15.5898 314.217 15.3184 313.486 15.3184C312.775 15.3184 312.215 15.5898 311.805 16.1328C311.398 16.6719 311.189 17.4219 311.178 18.3828V19.0098C311.178 19.9902 311.383 20.7617 311.793 21.3242C312.207 21.8828 312.775 22.1621 313.498 22.1621C314.225 22.1621 314.787 21.8984 315.186 21.3711C315.584 20.8398 315.789 20.0801 315.801 19.0918V18.459ZM321.261 14.4688L324.05 21.4297L326.839 14.4688H328.298V23H327.173V19.6777L327.278 16.0918L324.477 23H323.616L320.821 16.1094L320.932 19.6777V23H319.807V14.4688H321.261ZM332.609 19.6602V23H331.484V14.4688H334.63C335.564 14.4688 336.295 14.707 336.822 15.1836C337.353 15.6602 337.619 16.291 337.619 17.0762C337.619 17.9043 337.359 18.543 336.839 18.9922C336.324 19.4375 335.584 19.6602 334.619 19.6602H332.609ZM332.609 18.7402H334.63C335.232 18.7402 335.693 18.5996 336.013 18.3184C336.334 18.0332 336.494 17.623 336.494 17.0879C336.494 16.5801 336.334 16.1738 336.013 15.8691C335.693 15.5645 335.254 15.4062 334.695 15.3945H332.609V18.7402ZM341.385 22.0801H345.428V23H340.254V14.4688H341.385V22.0801ZM352.734 19.0566H349.036V22.0801H353.331V23H347.911V14.4688H353.273V15.3945H349.036V18.1367H352.734V19.0566ZM361.943 15.3945H359.201V23H358.082V15.3945H355.346V14.4688H361.943V15.3945ZM369.231 19.0566H365.534V22.0801H369.829V23H364.409V14.4688H369.77V15.3945H365.534V18.1367H369.231V19.0566Z" fill="white"/>
<path d="M48.583 20.6826H44.7275L43.9209 23H42.123L45.8828 13.0469H47.4346L51.2012 23H49.3965L48.583 20.6826ZM45.2129 19.2881H48.0977L46.6553 15.1592L45.2129 19.2881ZM58.3242 19.377C58.3242 20.5208 58.0645 21.4346 57.5449 22.1182C57.0254 22.7972 56.3281 23.1367 55.4531 23.1367C54.6419 23.1367 53.9925 22.8701 53.5049 22.3369V25.8438H51.8438V15.6035H53.375L53.4434 16.3555C53.931 15.763 54.5941 15.4668 55.4326 15.4668C56.335 15.4668 57.0413 15.804 57.5518 16.4785C58.0667 17.1484 58.3242 18.0804 58.3242 19.2744V19.377ZM56.6699 19.2334C56.6699 18.4951 56.5218 17.9095 56.2256 17.4766C55.9339 17.0436 55.5146 16.8271 54.9678 16.8271C54.2887 16.8271 53.8011 17.1074 53.5049 17.668V20.9492C53.8057 21.5234 54.2979 21.8105 54.9814 21.8105C55.5101 21.8105 55.9225 21.5986 56.2188 21.1748C56.5195 20.7464 56.6699 20.0993 56.6699 19.2334ZM66.2129 19.377C66.2129 20.5208 65.9531 21.4346 65.4336 22.1182C64.9141 22.7972 64.2168 23.1367 63.3418 23.1367C62.5306 23.1367 61.8812 22.8701 61.3936 22.3369V25.8438H59.7324V15.6035H61.2637L61.332 16.3555C61.8197 15.763 62.4827 15.4668 63.3213 15.4668C64.2236 15.4668 64.93 15.804 65.4404 16.4785C65.9554 17.1484 66.2129 18.0804 66.2129 19.2744V19.377ZM64.5586 19.2334C64.5586 18.4951 64.4105 17.9095 64.1143 17.4766C63.8226 17.0436 63.4033 16.8271 62.8564 16.8271C62.1774 16.8271 61.6898 17.1074 61.3936 17.668V20.9492C61.6943 21.5234 62.1865 21.8105 62.8701 21.8105C63.3988 21.8105 63.8112 21.5986 64.1074 21.1748C64.4082 20.7464 64.5586 20.0993 64.5586 19.2334ZM69.3916 23H67.7305V12.5H69.3916V23ZM72.9736 23H71.3125V15.6035H72.9736V23ZM71.21 13.6826C71.21 13.4274 71.2897 13.2155 71.4492 13.0469C71.6133 12.8783 71.8457 12.7939 72.1465 12.7939C72.4473 12.7939 72.6797 12.8783 72.8438 13.0469C73.0078 13.2155 73.0898 13.4274 73.0898 13.6826C73.0898 13.9333 73.0078 14.1429 72.8438 14.3115C72.6797 14.4756 72.4473 14.5576 72.1465 14.5576C71.8457 14.5576 71.6133 14.4756 71.4492 14.3115C71.2897 14.1429 71.21 13.9333 71.21 13.6826ZM77.8271 21.8105C78.2419 21.8105 78.5859 21.6898 78.8594 21.4482C79.1328 21.2067 79.2786 20.9082 79.2969 20.5527H80.8623C80.8441 21.013 80.7005 21.4437 80.4316 21.8447C80.1628 22.2412 79.7982 22.5557 79.3379 22.7881C78.8776 23.0205 78.3809 23.1367 77.8477 23.1367C76.8132 23.1367 75.9928 22.8018 75.3867 22.1318C74.7806 21.4619 74.4775 20.5368 74.4775 19.3564V19.1855C74.4775 18.0599 74.7783 17.1598 75.3799 16.4854C75.9814 15.8063 76.8018 15.4668 77.8408 15.4668C78.7204 15.4668 79.4359 15.7243 79.9873 16.2393C80.5433 16.7497 80.835 17.4219 80.8623 18.2559H79.2969C79.2786 17.832 79.1328 17.4834 78.8594 17.21C78.5905 16.9365 78.2464 16.7998 77.8271 16.7998C77.2894 16.7998 76.8747 16.9958 76.583 17.3877C76.2913 17.7751 76.1432 18.3652 76.1387 19.1582V19.4248C76.1387 20.2269 76.2822 20.8262 76.5693 21.2227C76.861 21.6146 77.2803 21.8105 77.8271 21.8105ZM86.5361 23C86.4632 22.8587 86.3994 22.6286 86.3447 22.3096C85.8161 22.861 85.1689 23.1367 84.4033 23.1367C83.6605 23.1367 83.0544 22.9248 82.585 22.501C82.1156 22.0771 81.8809 21.5531 81.8809 20.9287C81.8809 20.1403 82.1725 19.5365 82.7559 19.1172C83.3438 18.6934 84.1823 18.4814 85.2715 18.4814H86.29V17.9961C86.29 17.6133 86.1829 17.3079 85.9688 17.0801C85.7546 16.8477 85.4287 16.7314 84.9912 16.7314C84.613 16.7314 84.3031 16.8271 84.0615 17.0186C83.82 17.2054 83.6992 17.4447 83.6992 17.7363H82.0381C82.0381 17.3307 82.1725 16.9525 82.4414 16.6016C82.7103 16.2461 83.0749 15.9681 83.5352 15.7676C84 15.5671 84.5173 15.4668 85.0869 15.4668C85.9528 15.4668 86.6432 15.6855 87.1582 16.123C87.6732 16.556 87.9375 17.1667 87.9512 17.9551V21.291C87.9512 21.9564 88.0446 22.4873 88.2314 22.8838V23H86.5361ZM84.7109 21.8037C85.0391 21.8037 85.3467 21.724 85.6338 21.5645C85.9255 21.4049 86.1442 21.1908 86.29 20.9219V19.5273H85.3945C84.7793 19.5273 84.3167 19.6344 84.0068 19.8486C83.6969 20.0628 83.542 20.3659 83.542 20.7578C83.542 21.0768 83.6468 21.332 83.8564 21.5234C84.0706 21.7103 84.3555 21.8037 84.7109 21.8037ZM91.7725 13.8057V15.6035H93.0781V16.834H91.7725V20.9629C91.7725 21.2454 91.8271 21.4505 91.9365 21.5781C92.0505 21.7012 92.251 21.7627 92.5381 21.7627C92.7295 21.7627 92.9232 21.7399 93.1191 21.6943V22.9795C92.7409 23.0843 92.3763 23.1367 92.0254 23.1367C90.7493 23.1367 90.1113 22.4326 90.1113 21.0244V16.834H88.8945V15.6035H90.1113V13.8057H91.7725ZM96.1201 23H94.459V15.6035H96.1201V23ZM94.3564 13.6826C94.3564 13.4274 94.4362 13.2155 94.5957 13.0469C94.7598 12.8783 94.9922 12.7939 95.293 12.7939C95.5938 12.7939 95.8262 12.8783 95.9902 13.0469C96.1543 13.2155 96.2363 13.4274 96.2363 13.6826C96.2363 13.9333 96.1543 14.1429 95.9902 14.3115C95.8262 14.4756 95.5938 14.5576 95.293 14.5576C94.9922 14.5576 94.7598 14.4756 94.5957 14.3115C94.4362 14.1429 94.3564 13.9333 94.3564 13.6826ZM97.624 19.2334C97.624 18.5088 97.7676 17.8571 98.0547 17.2783C98.3418 16.695 98.7451 16.2484 99.2646 15.9385C99.7842 15.624 100.381 15.4668 101.056 15.4668C102.054 15.4668 102.863 15.7881 103.482 16.4307C104.107 17.0732 104.444 17.9255 104.494 18.9873L104.501 19.377C104.501 20.1061 104.36 20.7578 104.077 21.332C103.799 21.9062 103.398 22.3506 102.874 22.665C102.354 22.9795 101.753 23.1367 101.069 23.1367C100.026 23.1367 99.1895 22.7904 98.5605 22.0977C97.9362 21.4004 97.624 20.473 97.624 19.3154V19.2334ZM99.2852 19.377C99.2852 20.138 99.4424 20.735 99.7568 21.168C100.071 21.5964 100.509 21.8105 101.069 21.8105C101.63 21.8105 102.065 21.5918 102.375 21.1543C102.689 20.7168 102.847 20.0765 102.847 19.2334C102.847 18.486 102.685 17.8936 102.361 17.4561C102.042 17.0186 101.607 16.7998 101.056 16.7998C100.513 16.7998 100.083 17.0163 99.7637 17.4492C99.4447 17.8776 99.2852 18.5202 99.2852 19.377ZM107.447 15.6035L107.495 16.458C108.042 15.7972 108.76 15.4668 109.648 15.4668C111.189 15.4668 111.973 16.3486 112 18.1123V23H110.339V18.208C110.339 17.7386 110.236 17.3923 110.031 17.1689C109.831 16.9411 109.5 16.8271 109.04 16.8271C108.37 16.8271 107.871 17.1302 107.543 17.7363V23H105.882V15.6035H107.447ZM124.94 19.7598C124.84 20.8216 124.448 21.651 123.765 22.248C123.081 22.8405 122.172 23.1367 121.037 23.1367C120.244 23.1367 119.545 22.9499 118.938 22.5762C118.337 22.1979 117.872 21.6624 117.544 20.9697C117.216 20.277 117.045 19.4727 117.031 18.5566V17.627C117.031 16.6882 117.198 15.861 117.53 15.1455C117.863 14.43 118.339 13.8786 118.959 13.4912C119.583 13.1038 120.303 12.9102 121.119 12.9102C122.217 12.9102 123.102 13.2087 123.771 13.8057C124.441 14.4027 124.831 15.2458 124.94 16.335H123.218C123.136 15.6195 122.926 15.1045 122.589 14.79C122.256 14.471 121.766 14.3115 121.119 14.3115C120.367 14.3115 119.788 14.5872 119.383 15.1387C118.982 15.6855 118.777 16.4899 118.768 17.5518V18.4336C118.768 19.5091 118.959 20.3294 119.342 20.8945C119.729 21.4596 120.294 21.7422 121.037 21.7422C121.716 21.7422 122.227 21.5895 122.568 21.2842C122.91 20.9788 123.127 20.4707 123.218 19.7598H124.94ZM126.021 19.2334C126.021 18.5088 126.164 17.8571 126.451 17.2783C126.738 16.695 127.142 16.2484 127.661 15.9385C128.181 15.624 128.778 15.4668 129.452 15.4668C130.45 15.4668 131.259 15.7881 131.879 16.4307C132.503 17.0732 132.84 17.9255 132.891 18.9873L132.897 19.377C132.897 20.1061 132.756 20.7578 132.474 21.332C132.196 21.9062 131.795 22.3506 131.271 22.665C130.751 22.9795 130.149 23.1367 129.466 23.1367C128.422 23.1367 127.586 22.7904 126.957 22.0977C126.333 21.4004 126.021 20.473 126.021 19.3154V19.2334ZM127.682 19.377C127.682 20.138 127.839 20.735 128.153 21.168C128.468 21.5964 128.905 21.8105 129.466 21.8105C130.026 21.8105 130.462 21.5918 130.771 21.1543C131.086 20.7168 131.243 20.0765 131.243 19.2334C131.243 18.486 131.081 17.8936 130.758 17.4561C130.439 17.0186 130.004 16.7998 129.452 16.7998C128.91 16.7998 128.479 17.0163 128.16 17.4492C127.841 17.8776 127.682 18.5202 127.682 19.377ZM135.864 15.6035L135.912 16.376C136.432 15.7699 137.143 15.4668 138.045 15.4668C139.034 15.4668 139.711 15.8451 140.075 16.6016C140.613 15.8451 141.369 15.4668 142.345 15.4668C143.16 15.4668 143.767 15.6924 144.163 16.1436C144.564 16.5947 144.769 17.2601 144.778 18.1396V23H143.117V18.1875C143.117 17.7181 143.015 17.374 142.81 17.1553C142.604 16.9365 142.265 16.8271 141.791 16.8271C141.413 16.8271 141.103 16.9297 140.861 17.1348C140.624 17.3353 140.458 17.5996 140.362 17.9277L140.369 23H138.708V18.1328C138.685 17.2624 138.241 16.8271 137.375 16.8271C136.71 16.8271 136.238 17.0983 135.96 17.6406V23H134.299V15.6035H135.864ZM152.961 19.377C152.961 20.5208 152.701 21.4346 152.182 22.1182C151.662 22.7972 150.965 23.1367 150.09 23.1367C149.279 23.1367 148.629 22.8701 148.142 22.3369V25.8438H146.48V15.6035H148.012L148.08 16.3555C148.568 15.763 149.231 15.4668 150.069 15.4668C150.972 15.4668 151.678 15.804 152.188 16.4785C152.703 17.1484 152.961 18.0804 152.961 19.2744V19.377ZM151.307 19.2334C151.307 18.4951 151.159 17.9095 150.862 17.4766C150.571 17.0436 150.151 16.8271 149.604 16.8271C148.925 16.8271 148.438 17.1074 148.142 17.668V20.9492C148.442 21.5234 148.935 21.8105 149.618 21.8105C150.147 21.8105 150.559 21.5986 150.855 21.1748C151.156 20.7464 151.307 20.0993 151.307 19.2334ZM156.14 23H154.479V12.5H156.14V23ZM161.212 23.1367C160.159 23.1367 159.305 22.8063 158.648 22.1455C157.997 21.4801 157.671 20.596 157.671 19.4932V19.2881C157.671 18.5498 157.812 17.8913 158.095 17.3125C158.382 16.7292 158.783 16.2757 159.298 15.9521C159.813 15.6286 160.387 15.4668 161.021 15.4668C162.028 15.4668 162.805 15.7881 163.352 16.4307C163.903 17.0732 164.179 17.9824 164.179 19.1582V19.8281H159.346C159.396 20.4388 159.599 20.9219 159.954 21.2773C160.314 21.6328 160.765 21.8105 161.308 21.8105C162.069 21.8105 162.688 21.5029 163.167 20.8877L164.062 21.7422C163.766 22.1842 163.37 22.5283 162.873 22.7744C162.381 23.016 161.827 23.1367 161.212 23.1367ZM161.014 16.7998C160.558 16.7998 160.189 16.9593 159.906 17.2783C159.628 17.5973 159.451 18.0417 159.373 18.6113H162.538V18.4883C162.502 17.9323 162.354 17.513 162.094 17.2305C161.834 16.9434 161.474 16.7998 161.014 16.7998ZM167.556 13.8057V15.6035H168.861V16.834H167.556V20.9629C167.556 21.2454 167.61 21.4505 167.72 21.5781C167.834 21.7012 168.034 21.7627 168.321 21.7627C168.513 21.7627 168.706 21.7399 168.902 21.6943V22.9795C168.524 23.0843 168.16 23.1367 167.809 23.1367C166.533 23.1367 165.895 22.4326 165.895 21.0244V16.834H164.678V15.6035H165.895V13.8057H167.556ZM171.903 23H170.242V15.6035H171.903V23ZM170.14 13.6826C170.14 13.4274 170.219 13.2155 170.379 13.0469C170.543 12.8783 170.775 12.7939 171.076 12.7939C171.377 12.7939 171.609 12.8783 171.773 13.0469C171.938 13.2155 172.02 13.4274 172.02 13.6826C172.02 13.9333 171.938 14.1429 171.773 14.3115C171.609 14.4756 171.377 14.5576 171.076 14.5576C170.775 14.5576 170.543 14.4756 170.379 14.3115C170.219 14.1429 170.14 13.9333 170.14 13.6826ZM175.8 13.8057V15.6035H177.105V16.834H175.8V20.9629C175.8 21.2454 175.854 21.4505 175.964 21.5781C176.078 21.7012 176.278 21.7627 176.565 21.7627C176.757 21.7627 176.951 21.7399 177.146 21.6943V22.9795C176.768 23.0843 176.404 23.1367 176.053 23.1367C174.777 23.1367 174.139 22.4326 174.139 21.0244V16.834H172.922V15.6035H174.139V13.8057H175.8ZM180.147 23H178.486V15.6035H180.147V23ZM178.384 13.6826C178.384 13.4274 178.464 13.2155 178.623 13.0469C178.787 12.8783 179.02 12.7939 179.32 12.7939C179.621 12.7939 179.854 12.8783 180.018 13.0469C180.182 13.2155 180.264 13.4274 180.264 13.6826C180.264 13.9333 180.182 14.1429 180.018 14.3115C179.854 14.4756 179.621 14.5576 179.32 14.5576C179.02 14.5576 178.787 14.4756 178.623 14.3115C178.464 14.1429 178.384 13.9333 178.384 13.6826ZM181.651 19.2334C181.651 18.5088 181.795 17.8571 182.082 17.2783C182.369 16.695 182.772 16.2484 183.292 15.9385C183.812 15.624 184.409 15.4668 185.083 15.4668C186.081 15.4668 186.89 15.7881 187.51 16.4307C188.134 17.0732 188.471 17.9255 188.521 18.9873L188.528 19.377C188.528 20.1061 188.387 20.7578 188.104 21.332C187.826 21.9062 187.425 22.3506 186.901 22.665C186.382 22.9795 185.78 23.1367 185.097 23.1367C184.053 23.1367 183.217 22.7904 182.588 22.0977C181.964 21.4004 181.651 20.473 181.651 19.3154V19.2334ZM183.312 19.377C183.312 20.138 183.47 20.735 183.784 21.168C184.099 21.5964 184.536 21.8105 185.097 21.8105C185.657 21.8105 186.092 21.5918 186.402 21.1543C186.717 20.7168 186.874 20.0765 186.874 19.2334C186.874 18.486 186.712 17.8936 186.389 17.4561C186.07 17.0186 185.634 16.7998 185.083 16.7998C184.541 16.7998 184.11 17.0163 183.791 17.4492C183.472 17.8776 183.312 18.5202 183.312 19.377ZM191.475 15.6035L191.522 16.458C192.069 15.7972 192.787 15.4668 193.676 15.4668C195.216 15.4668 196 16.3486 196.027 18.1123V23H194.366V18.208C194.366 17.7386 194.264 17.3923 194.059 17.1689C193.858 16.9411 193.528 16.8271 193.067 16.8271C192.397 16.8271 191.898 17.1302 191.57 17.7363V23H189.909V15.6035H191.475Z" fill="white"/>
<path d="M25 10.9375C23.6758 10.9375 22.4453 11.2715 21.3086 11.9395C20.207 12.584 19.334 13.457 18.6895 14.5586C18.0215 15.6953 17.6875 16.9258 17.6875 18.25C17.6875 19.5742 18.0215 20.8047 18.6895 21.9414C19.334 23.043 20.207 23.916 21.3086 24.5605C22.4453 25.2285 23.6758 25.5625 25 25.5625C26.3242 25.5625 27.5547 25.2285 28.6914 24.5605C29.793 23.916 30.666 23.043 31.3105 21.9414C31.9785 20.8047 32.3125 19.5742 32.3125 18.25C32.3125 16.9258 31.9785 15.6953 31.3105 14.5586C30.666 13.457 29.793 12.584 28.6914 11.9395C27.5547 11.2715 26.3242 10.9375 25 10.9375ZM25 12.0625C26.1133 12.0625 27.1562 12.3438 28.1289 12.9062C29.0547 13.457 29.793 14.1953 30.3438 15.1211C30.9062 16.0938 31.1875 17.1367 31.1875 18.25C31.1875 19.3633 30.9062 20.4062 30.3438 21.3789C29.793 22.3047 29.0547 23.043 28.1289 23.5938C27.1562 24.1562 26.1133 24.4375 25 24.4375C23.8867 24.4375 22.8438 24.1562 21.8711 23.5938C20.9453 23.043 20.207 22.3047 19.6562 21.3789C19.0938 20.4062 18.8125 19.3633 18.8125 18.25C18.8125 17.1367 19.0938 16.0938 19.6562 15.1211C20.207 14.1953 20.9453 13.457 21.8711 12.9062C22.8438 12.3438 23.8867 12.0625 25 12.0625ZM22.4688 16C22.2344 16 22.0352 16.082 21.8711 16.2461C21.707 16.4102 21.625 16.6094 21.625 16.8438C21.625 17.0781 21.707 17.2773 21.8711 17.4414C22.0352 17.6055 22.2344 17.6875 22.4688 17.6875C22.7031 17.6875 22.9023 17.6055 23.0664 17.4414C23.2305 17.2773 23.3125 17.0781 23.3125 16.8438C23.3125 16.6094 23.2305 16.4102 23.0664 16.2461C22.9023 16.082 22.7031 16 22.4688 16ZM27.5312 16C27.2969 16 27.0977 16.082 26.9336 16.2461C26.7695 16.4102 26.6875 16.6094 26.6875 16.8438C26.6875 17.0781 26.7695 17.2773 26.9336 17.4414C27.0977 17.6055 27.2969 17.6875 27.5312 17.6875C27.7656 17.6875 27.9648 17.6055 28.1289 17.4414C28.293 17.2773 28.375 17.0781 28.375 16.8438C28.375 16.6094 28.293 16.4102 28.1289 16.2461C27.9648 16.082 27.7656 16 27.5312 16ZM21.0625 19.9375C21.0977 20.0312 21.1387 20.1309 21.1855 20.2363C21.291 20.4707 21.4199 20.6992 21.5723 20.9219C21.7832 21.2383 22.0293 21.5195 22.3105 21.7656C22.6504 22.0586 23.0195 22.2871 23.418 22.4512C23.9102 22.6504 24.4375 22.75 25 22.75C25.5625 22.75 26.0898 22.6504 26.582 22.4512C26.9805 22.2871 27.3496 22.0586 27.6895 21.7656C27.9707 21.5195 28.2168 21.2383 28.4277 20.9219C28.5801 20.6992 28.709 20.4707 28.8145 20.2363L28.9375 19.9375H21.0625Z" fill="white" fill-opacity="0.5"/>
</svg>
