<svg width="156" height="19" viewBox="0 0 156 19" fill="none" xmlns="http://www.w3.org/2000/svg">
<path d="M139.398 15H131.945V13.9609L135.883 9.58594C136.466 8.92448 136.867 8.38802 137.086 7.97656C137.31 7.5599 137.422 7.13021 137.422 6.6875C137.422 6.09375 137.242 5.60677 136.883 5.22656C136.523 4.84635 136.044 4.65625 135.445 4.65625C134.727 4.65625 134.167 4.86198 133.766 5.27344C133.37 5.67969 133.172 6.2474 133.172 6.97656H131.727C131.727 5.92969 132.062 5.08333 132.734 4.4375C133.411 3.79167 134.315 3.46875 135.445 3.46875C136.503 3.46875 137.339 3.7474 137.953 4.30469C138.568 4.85677 138.875 5.59375 138.875 6.51562C138.875 7.63542 138.161 8.96875 136.734 10.5156L133.688 13.8203H139.398V15ZM141.367 15.9766H140.125L144.875 3.625H146.109L141.367 15.9766ZM153.625 11.1797H155.203V12.3594H153.625V15H152.172V12.3594H146.992V11.5078L152.086 3.625H153.625V11.1797ZM148.633 11.1797H152.172V5.60156L152 5.91406L148.633 11.1797Z" fill="black"/>
<rect y="4" width="115" height="10" rx="5" fill="#EAEAEA"/>
<rect y="4" width="57.5" height="10" rx="5" fill="#8A8A8A"/>
</svg>
