<svg width="16" height="16" viewBox="0 0 16 16" fill="none" xmlns="http://www.w3.org/2000/svg">
<path d="M8 0.9375C6.88672 0.9375 5.83789 1.17188 4.85352 1.64062C3.88086 2.10937 3.05469 2.75391 2.375 3.57422V1.5H1.25V6H5.75V4.875H2.83203C3.40625 4.00781 4.13281 3.32812 5.01172 2.83594C5.9375 2.32031 6.93359 2.0625 8 2.0625C9.125 2.0625 10.168 2.34375 11.1289 2.90625C12.0664 3.44531 12.8047 4.18359 13.3438 5.12109C13.9062 6.08203 14.1875 7.125 14.1875 8.25C14.1875 9.375 13.9062 10.418 13.3438 11.3789C12.8047 12.3164 12.0664 13.0547 11.1289 13.5938C10.168 14.1562 9.125 14.4375 8 14.4375C6.875 14.4375 5.83203 14.1562 4.87109 13.5938C3.93359 13.0547 3.19531 12.3164 2.65625 11.3789C2.09375 10.418 1.8125 9.375 1.8125 8.25H0.6875C0.6875 9.57422 1.02148 10.8047 1.68945 11.9414C2.33398 13.043 3.20703 13.916 4.30859 14.5605C5.44531 15.2285 6.67578 15.5625 8 15.5625C9.32422 15.5625 10.5547 15.2285 11.6914 14.5605C12.793 13.916 13.666 13.043 14.3105 11.9414C14.9785 10.8047 15.3125 9.57422 15.3125 8.25C15.3125 6.92578 14.9785 5.69531 14.3105 4.55859C13.666 3.45703 12.793 2.58398 11.6914 1.93945C10.5547 1.27148 9.32422 0.9375 8 0.9375Z" fill="#777777"/>
</svg>
