<svg width="156" height="19" viewBox="0 0 156 19" fill="none" xmlns="http://www.w3.org/2000/svg">
<path d="M138.047 11.1797H139.625V12.3594H138.047V15H136.594V12.3594H131.414V11.5078L136.508 3.625H138.047V11.1797ZM133.055 11.1797H136.594V5.60156L136.422 5.91406L133.055 11.1797ZM141.367 15.9766H140.125L144.875 3.625H146.109L141.367 15.9766ZM153.625 11.1797H155.203V12.3594H153.625V15H152.172V12.3594H146.992V11.5078L152.086 3.625H153.625V11.1797ZM148.633 11.1797H152.172V5.60156L152 5.91406L148.633 11.1797Z" fill="black"/>
<rect y="4" width="115" height="10" rx="5" fill="#EAEAEA"/>
<rect y="4" width="115" height="10" rx="5" fill="#444444"/>
</svg>
