<svg width="169" height="19" viewBox="0 0 169 19" fill="none" xmlns="http://www.w3.org/2000/svg">
<path d="M131.695 15H130.242V5.36719L127.328 6.4375V5.125L131.469 3.57031H131.695V15ZM140.68 15H139.227V5.36719L136.312 6.4375V5.125L140.453 3.57031H140.68V15ZM145.352 15.9766H144.109L148.859 3.625H150.094L145.352 15.9766ZM156.258 15H154.805V5.36719L151.891 6.4375V5.125L156.031 3.57031H156.258V15ZM166.594 11.1797H168.172V12.3594H166.594V15H165.141V12.3594H159.961V11.5078L165.055 3.625H166.594V11.1797ZM161.602 11.1797H165.141V5.60156L164.969 5.91406L161.602 11.1797Z" fill="black"/>
<rect y="4" width="115" height="10" rx="5" fill="#EAEAEA"/>
<rect y="4" width="90.31" height="10" rx="5" fill="#8A8A8A"/>
</svg>
