<svg width="16" height="15" viewBox="0 0 16 15" fill="none" xmlns="http://www.w3.org/2000/svg">
<path d="M11.125 0C9.97917 0 9.0026 0.201823 8.19531 0.605469C7.76562 0.813802 7.42708 1.07422 7.17969 1.38672C6.89323 1.72526 6.75 2.09635 6.75 2.5V5C6.75 5.03906 6.75651 5.09115 6.76953 5.15625L6.78906 5.23438C6.1901 5.07812 5.55208 5 4.875 5C3.72917 5 2.7526 5.20182 1.94531 5.60547C1.51562 5.8138 1.17708 6.07422 0.929688 6.38672C0.643229 6.72526 0.5 7.09635 0.5 7.5V12.5C0.5 12.9036 0.643229 13.2747 0.929688 13.6133C1.17708 13.9258 1.51562 14.1862 1.94531 14.3945C2.7526 14.7982 3.72917 15 4.875 15C6.02083 15 6.9974 14.7982 7.80469 14.3945C8.23438 14.1862 8.57292 13.9258 8.82031 13.6133C9.10677 13.2747 9.25 12.9036 9.25 12.5V12.2461C9.88802 12.4154 10.513 12.5 11.125 12.5C12.2708 12.5 13.2474 12.2982 14.0547 11.8945C14.4844 11.6862 14.8229 11.4258 15.0703 11.1133C15.3568 10.7747 15.5 10.4036 15.5 10V2.5C15.5 2.09635 15.3568 1.72526 15.0703 1.38672C14.8229 1.07422 14.4844 0.813802 14.0547 0.605469C13.2474 0.201823 12.2708 0 11.125 0ZM11.125 1.25C11.5807 1.25 12.0234 1.29557 12.4531 1.38672C12.8438 1.47786 13.1888 1.59505 13.4883 1.73828C13.7487 1.86849 13.944 2.00521 14.0742 2.14844C14.1914 2.27865 14.25 2.39583 14.25 2.5C14.25 2.60417 14.1914 2.72135 14.0742 2.85156C13.944 2.99479 13.7487 3.13151 13.4883 3.26172C13.1888 3.40495 12.8438 3.52214 12.4531 3.61328C12.0234 3.70443 11.5807 3.75 11.125 3.75C10.6693 3.75 10.2266 3.70443 9.79688 3.61328C9.40625 3.52214 9.0612 3.40495 8.76172 3.26172C8.5013 3.13151 8.30599 2.99479 8.17578 2.85156C8.05859 2.72135 8 2.60417 8 2.5C8 2.39583 8.05859 2.27865 8.17578 2.14844C8.30599 2.00521 8.5013 1.86849 8.76172 1.73828C9.0612 1.59505 9.40625 1.47786 9.79688 1.38672C10.2266 1.29557 10.6693 1.25 11.125 1.25ZM8 4.27734C8.01302 4.29036 8.03906 4.3099 8.07812 4.33594L8.19531 4.39453C9.0026 4.79818 9.97917 5 11.125 5C12.2708 5 13.2474 4.79818 14.0547 4.39453L14.25 4.27734V5C14.25 5.10417 14.1914 5.22135 14.0742 5.35156C13.944 5.49479 13.7487 5.63151 13.4883 5.76172C13.1888 5.90495 12.8438 6.02214 12.4531 6.11328C12.0234 6.20443 11.5807 6.25 11.125 6.25C10.6693 6.25 10.2266 6.20443 9.79688 6.11328C9.40625 6.02214 9.0612 5.90495 8.76172 5.76172C8.5013 5.63151 8.30599 5.49479 8.17578 5.35156C8.05859 5.22135 8 5.10417 8 5V4.27734ZM4.875 6.25C5.33073 6.25 5.77344 6.29557 6.20312 6.38672C6.59375 6.47786 6.9388 6.59505 7.23828 6.73828C7.4987 6.86849 7.69401 7.00521 7.82422 7.14844C7.94141 7.27865 8 7.39583 8 7.5C8 7.60417 7.94141 7.72135 7.82422 7.85156C7.69401 7.99479 7.4987 8.13151 7.23828 8.26172C6.9388 8.40495 6.59375 8.52214 6.20312 8.61328C5.77344 8.70443 5.33073 8.75 4.875 8.75C4.41927 8.75 3.97656 8.70443 3.54688 8.61328C3.15625 8.52214 2.8112 8.40495 2.51172 8.26172C2.2513 8.13151 2.05599 7.99479 1.92578 7.85156C1.80859 7.72135 1.75 7.60417 1.75 7.5C1.75 7.39583 1.80859 7.27865 1.92578 7.14844C2.05599 7.00521 2.2513 6.86849 2.51172 6.73828C2.8112 6.59505 3.15625 6.47786 3.54688 6.38672C3.97656 6.29557 4.41927 6.25 4.875 6.25ZM14.25 6.77734V7.5C14.25 7.60417 14.1914 7.72135 14.0742 7.85156C13.944 7.99479 13.7487 8.13151 13.4883 8.26172C13.1888 8.40495 12.8438 8.52214 12.4531 8.61328C12.0234 8.70443 11.5807 8.75 11.125 8.75C10.4609 8.75 9.83594 8.65234 9.25 8.45703V7.5C9.25 7.46094 9.24349 7.40885 9.23047 7.34375L9.21094 7.26562C9.8099 7.42188 10.4479 7.5 11.125 7.5C12.2708 7.5 13.2474 7.29818 14.0547 6.89453L14.25 6.77734ZM1.75 9.27734C1.76302 9.29036 1.78906 9.3099 1.82812 9.33594L1.94531 9.39453C2.7526 9.79818 3.72917 10 4.875 10C6.02083 10 6.9974 9.79818 7.80469 9.39453L8 9.27734V10C8 10.1042 7.94141 10.2214 7.82422 10.3516C7.69401 10.4948 7.4987 10.6315 7.23828 10.7617C6.9388 10.9049 6.59375 11.0221 6.20312 11.1133C5.77344 11.2044 5.33073 11.25 4.875 11.25C4.41927 11.25 3.97656 11.2044 3.54688 11.1133C3.15625 11.0221 2.8112 10.9049 2.51172 10.7617C2.2513 10.6315 2.05599 10.4948 1.92578 10.3516C1.80859 10.2214 1.75 10.1042 1.75 10V9.27734ZM14.25 9.27734V10C14.25 10.1042 14.1914 10.2214 14.0742 10.3516C13.944 10.4948 13.7487 10.6315 13.4883 10.7617C13.1888 10.9049 12.8438 11.0221 12.4531 11.1133C12.0234 11.2044 11.5807 11.25 11.125 11.25C10.4219 11.25 9.79688 11.1589 9.25 10.9766V9.76562C9.83594 9.92188 10.4609 10 11.125 10C12.2708 10 13.2474 9.79818 14.0547 9.39453L14.25 9.27734ZM1.75 11.7773C1.76302 11.7904 1.78906 11.8099 1.82812 11.8359L1.94531 11.8945C2.7526 12.2982 3.72917 12.5 4.875 12.5C6.02083 12.5 6.9974 12.2982 7.80469 11.8945L8 11.7773V12.5C8 12.6042 7.94141 12.7214 7.82422 12.8516C7.69401 12.9948 7.4987 13.1315 7.23828 13.2617C6.9388 13.4049 6.59375 13.5221 6.20312 13.6133C5.77344 13.7044 5.33073 13.75 4.875 13.75C4.41927 13.75 3.97656 13.7044 3.54688 13.6133C3.15625 13.5221 2.8112 13.4049 2.51172 13.2617C2.2513 13.1315 2.05599 12.9948 1.92578 12.8516C1.80859 12.7214 1.75 12.6042 1.75 12.5V11.7773Z" fill="black"/>
</svg>
