<svg width="156" height="19" viewBox="0 0 156 19" fill="none" xmlns="http://www.w3.org/2000/svg">
<path d="M139.516 10.1484C139.516 11.8411 139.227 13.099 138.648 13.9219C138.07 14.7448 137.167 15.1562 135.938 15.1562C134.724 15.1562 133.826 14.7552 133.242 13.9531C132.659 13.1458 132.357 11.9427 132.336 10.3438V8.41406C132.336 6.74219 132.625 5.5 133.203 4.6875C133.781 3.875 134.688 3.46875 135.922 3.46875C137.146 3.46875 138.047 3.86198 138.625 4.64844C139.203 5.42969 139.5 6.63802 139.516 8.27344V10.1484ZM138.07 8.17188C138.07 6.94792 137.898 6.05729 137.555 5.5C137.211 4.9375 136.667 4.65625 135.922 4.65625C135.182 4.65625 134.643 4.9349 134.305 5.49219C133.966 6.04948 133.792 6.90625 133.781 8.0625V10.375C133.781 11.6042 133.958 12.513 134.312 13.1016C134.672 13.6849 135.214 13.9766 135.938 13.9766C136.651 13.9766 137.18 13.7005 137.523 13.1484C137.872 12.5964 138.055 11.7266 138.07 10.5391V8.17188ZM141.805 15.9766H140.562L145.312 3.625H146.547L141.805 15.9766ZM150.062 8.60938H151.148C151.831 8.59896 152.367 8.41927 152.758 8.07031C153.148 7.72135 153.344 7.25 153.344 6.65625C153.344 5.32292 152.68 4.65625 151.352 4.65625C150.727 4.65625 150.227 4.83594 149.852 5.19531C149.482 5.54948 149.297 6.02083 149.297 6.60938H147.852C147.852 5.70833 148.18 4.96094 148.836 4.36719C149.497 3.76823 150.336 3.46875 151.352 3.46875C152.424 3.46875 153.266 3.7526 153.875 4.32031C154.484 4.88802 154.789 5.67708 154.789 6.6875C154.789 7.18229 154.628 7.66146 154.305 8.125C153.987 8.58854 153.552 8.9349 153 9.16406C153.625 9.36198 154.107 9.6901 154.445 10.1484C154.789 10.6068 154.961 11.1667 154.961 11.8281C154.961 12.849 154.628 13.6589 153.961 14.2578C153.294 14.8568 152.427 15.1562 151.359 15.1562C150.292 15.1562 149.422 14.8672 148.75 14.2891C148.083 13.7109 147.75 12.9479 147.75 12H149.203C149.203 12.599 149.398 13.0781 149.789 13.4375C150.18 13.7969 150.703 13.9766 151.359 13.9766C152.057 13.9766 152.591 13.7943 152.961 13.4297C153.331 13.0651 153.516 12.5417 153.516 11.8594C153.516 11.1979 153.312 10.6901 152.906 10.3359C152.5 9.98177 151.914 9.79948 151.148 9.78906H150.062V8.60938Z" fill="black"/>
<rect y="4" width="115" height="10" rx="5" fill="#EAEAEA"/>
</svg>
