<svg width="16" height="13" viewBox="0 0 16 13" fill="none" xmlns="http://www.w3.org/2000/svg">
<path d="M2.375 0.625C1.91797 0.625 1.51953 0.794922 1.17969 1.13477C0.851562 1.46289 0.6875 1.85547 0.6875 2.3125V6.12695C0.511719 6.29102 0.371094 6.47852 0.265625 6.68945C0.171875 6.90039 0.125 7.12891 0.125 7.375V12.4375H2.9375V11.3125H13.0625V12.4375H15.875V7.375C15.875 7.12891 15.8223 6.90039 15.7168 6.68945C15.623 6.47852 15.4883 6.29102 15.3125 6.12695V2.3125C15.3125 1.85547 15.1426 1.46289 14.8027 1.13477C14.4746 0.794922 14.082 0.625 13.625 0.625H2.375ZM2.375 1.75H13.625C13.7773 1.75 13.9062 1.80859 14.0117 1.92578C14.1289 2.03125 14.1875 2.16016 14.1875 2.3125V5.6875H13.0625V5.125C13.0625 4.66797 12.8926 4.27539 12.5527 3.94727C12.2246 3.60742 11.832 3.4375 11.375 3.4375H9.125C8.70312 3.4375 8.32812 3.58398 8 3.87695C7.67188 3.58398 7.29688 3.4375 6.875 3.4375H4.625C4.16797 3.4375 3.76953 3.60742 3.42969 3.94727C3.10156 4.27539 2.9375 4.66797 2.9375 5.125V5.6875H1.8125V2.3125C1.8125 2.16016 1.86523 2.03125 1.9707 1.92578C2.08789 1.80859 2.22266 1.75 2.375 1.75ZM4.625 4.5625H6.875C7.02734 4.5625 7.15625 4.62109 7.26172 4.73828C7.37891 4.84375 7.4375 4.97266 7.4375 5.125V5.6875H4.0625V5.125C4.0625 4.97266 4.11523 4.84375 4.2207 4.73828C4.33789 4.62109 4.47266 4.5625 4.625 4.5625ZM9.125 4.5625H11.375C11.5273 4.5625 11.6562 4.62109 11.7617 4.73828C11.8789 4.84375 11.9375 4.97266 11.9375 5.125V5.6875H8.5625V5.125C8.5625 4.97266 8.61523 4.84375 8.7207 4.73828C8.83789 4.62109 8.97266 4.5625 9.125 4.5625ZM1.8125 6.8125H14.1875C14.3398 6.8125 14.4688 6.87109 14.5742 6.98828C14.6914 7.09375 14.75 7.22266 14.75 7.375V11.3125H14.1875V10.1875H1.8125V11.3125H1.25V7.375C1.25 7.22266 1.30273 7.09375 1.4082 6.98828C1.52539 6.87109 1.66016 6.8125 1.8125 6.8125Z" fill="black"/>
</svg>
