<svg width="12" height="15" viewBox="0 0 12 15" fill="none" xmlns="http://www.w3.org/2000/svg">
<path d="M5.92188 0L5.86328 0.0195312L0.375 1.30859V13.9648L0.882812 14.043L5.88281 14.9805L5.94141 15H7.25V0H5.92188ZM8.5 1.25V2.5H10.375V12.5H8.5V13.75H11.625V1.25H8.5ZM6 1.26953V13.75L1.625 12.9297V2.28516L6 1.26953ZM4.96484 6.875C4.84766 6.875 4.74349 6.9401 4.65234 7.07031C4.57422 7.1875 4.53516 7.33073 4.53516 7.5C4.53516 7.66927 4.57422 7.81901 4.65234 7.94922C4.74349 8.06641 4.84766 8.125 4.96484 8.125C5.08203 8.125 5.17969 8.06641 5.25781 7.94922C5.33594 7.81901 5.375 7.66927 5.375 7.5C5.375 7.33073 5.33594 7.1875 5.25781 7.07031C5.17969 6.9401 5.08203 6.875 4.96484 6.875Z" fill="#777777"/>
</svg>
