<svg width="18" height="14" viewBox="0 0 18 14" fill="none" xmlns="http://www.w3.org/2000/svg">
<path d="M14.625 0.5C14.2148 0.5 13.834 0.599609 13.4824 0.798828C13.1426 0.998047 12.873 1.27344 12.6738 1.625C12.4746 1.96484 12.375 2.33984 12.375 2.75H11.25V3.875H14.625V2.75H13.5C13.5 2.41016 13.5996 2.14063 13.7988 1.94141C14.0098 1.73047 14.2852 1.625 14.625 1.625C14.9648 1.625 15.2344 1.73047 15.4336 1.94141C15.6445 2.14063 15.75 2.41016 15.75 2.75V6.125H0.5625V7.25H1.23047L2.0918 11.5391C2.16211 11.832 2.29688 12.0898 2.49609 12.3125C2.69531 12.5352 2.93555 12.6934 3.2168 12.7871L2.8125 14H3.9375L4.30664 12.875H13.6934L14.0625 14H15.1875L14.7832 12.7871C15.0762 12.6934 15.3281 12.5352 15.5391 12.3125C15.75 12.0898 15.8906 11.832 15.9609 11.5391L16.7695 7.25H17.4375V6.125H16.875V2.75C16.875 2.33984 16.7754 1.96484 16.5762 1.625C16.377 1.27344 16.1016 0.998047 15.75 0.798828C15.4102 0.599609 15.0352 0.5 14.625 0.5ZM2.37305 7.25H15.6445L14.8535 11.3105C14.8184 11.4395 14.748 11.5449 14.6426 11.627C14.5488 11.709 14.4316 11.75 14.291 11.75H3.76172C3.62109 11.75 3.49805 11.709 3.39258 11.627C3.29883 11.5332 3.23438 11.4219 3.19922 11.293L2.37305 7.25Z" fill="black"/>
</svg>
