<svg width="16" height="16" viewBox="0 0 16 16" fill="none" xmlns="http://www.w3.org/2000/svg">
<path d="M8 0.9375C6.67578 0.9375 5.44531 1.27148 4.30859 1.93945C3.20703 2.58398 2.33398 3.45703 1.68945 4.55859C1.02148 5.69531 0.6875 6.92578 0.6875 8.25C0.6875 9.57422 1.02148 10.8047 1.68945 11.9414C2.33398 13.043 3.20703 13.916 4.30859 14.5605C5.44531 15.2285 6.67578 15.5625 8 15.5625C9.32422 15.5625 10.5547 15.2285 11.6914 14.5605C12.793 13.916 13.666 13.043 14.3105 11.9414C14.9785 10.8047 15.3125 9.57422 15.3125 8.25C15.3125 6.92578 14.9785 5.69531 14.3105 4.55859C13.666 3.45703 12.793 2.58398 11.6914 1.93945C10.5547 1.27148 9.32422 0.9375 8 0.9375ZM8 2.0625C9.11328 2.0625 10.1562 2.34375 11.1289 2.90625C12.0547 3.45703 12.793 4.19531 13.3438 5.12109C13.9062 6.09375 14.1875 7.13672 14.1875 8.25C14.1875 9.36328 13.9062 10.4062 13.3438 11.3789C12.793 12.3047 12.0547 13.043 11.1289 13.5938C10.1562 14.1562 9.11328 14.4375 8 14.4375C6.88672 14.4375 5.84375 14.1562 4.87109 13.5938C3.94531 13.043 3.20703 12.3047 2.65625 11.3789C2.09375 10.4062 1.8125 9.36328 1.8125 8.25C1.8125 7.13672 2.09375 6.09375 2.65625 5.12109C3.20703 4.19531 3.94531 3.45703 4.87109 2.90625C5.84375 2.34375 6.88672 2.0625 8 2.0625ZM5.46875 6C5.23438 6 5.03516 6.08203 4.87109 6.24609C4.70703 6.41016 4.625 6.60938 4.625 6.84375C4.625 7.07812 4.70703 7.27734 4.87109 7.44141C5.03516 7.60547 5.23438 7.6875 5.46875 7.6875C5.70312 7.6875 5.90234 7.60547 6.06641 7.44141C6.23047 7.27734 6.3125 7.07812 6.3125 6.84375C6.3125 6.60938 6.23047 6.41016 6.06641 6.24609C5.90234 6.08203 5.70312 6 5.46875 6ZM10.5312 6C10.2969 6 10.0977 6.08203 9.93359 6.24609C9.76953 6.41016 9.6875 6.60938 9.6875 6.84375C9.6875 7.07812 9.76953 7.27734 9.93359 7.44141C10.0977 7.60547 10.2969 7.6875 10.5312 7.6875C10.7656 7.6875 10.9648 7.60547 11.1289 7.44141C11.293 7.27734 11.375 7.07812 11.375 6.84375C11.375 6.60938 11.293 6.41016 11.1289 6.24609C10.9648 6.08203 10.7656 6 10.5312 6ZM4.0625 9.9375C4.09766 10.0312 4.13867 10.1309 4.18555 10.2363C4.29102 10.4707 4.41992 10.6992 4.57227 10.9219C4.7832 11.2383 5.0293 11.5195 5.31055 11.7656C5.65039 12.0586 6.01953 12.2871 6.41797 12.4512C6.91016 12.6504 7.4375 12.75 8 12.75C8.5625 12.75 9.08984 12.6504 9.58203 12.4512C9.98047 12.2871 10.3496 12.0586 10.6895 11.7656C10.9707 11.5195 11.2168 11.2383 11.4277 10.9219C11.5801 10.6992 11.709 10.4707 11.8145 10.2363L11.9375 9.9375H4.0625Z" fill="black" fill-opacity="0.5"/>
</svg>
